<?xml version="1.0" encoding="UTF-8" standalone="no"?>
<!-- Created with Inkscape (http://www.inkscape.org/) -->

<svg
   width="1600"
   height="900"
   viewBox="0 0 1600 900"
   version="1.1"
   id="svg5"
   xml:space="preserve"
   inkscape:version="1.3.2 (091e20e, 2023-11-25)"
   sodipodi:docname="NixOS-Laptop.svg"
   inkscape:export-filename="../Created/NixOS-LT.png"
   inkscape:export-xdpi="96"
   inkscape:export-ydpi="96"
   xmlns:inkscape="http://www.inkscape.org/namespaces/inkscape"
   xmlns:sodipodi="http://sodipodi.sourceforge.net/DTD/sodipodi-0.dtd"
   xmlns:xlink="http://www.w3.org/1999/xlink"
   xmlns="http://www.w3.org/2000/svg"
   xmlns:svg="http://www.w3.org/2000/svg"><sodipodi:namedview
     id="namedview7"
     pagecolor="#ffffff"
     bordercolor="#000000"
     borderopacity="0.25"
     inkscape:showpageshadow="2"
     inkscape:pageopacity="0.0"
     inkscape:pagecheckerboard="0"
     inkscape:deskcolor="#d1d1d1"
     inkscape:document-units="px"
     showgrid="false"
     inkscape:zoom="0.5"
     inkscape:cx="917"
     inkscape:cy="303"
     inkscape:window-width="1904"
     inkscape:window-height="1040"
     inkscape:window-x="0"
     inkscape:window-y="0"
     inkscape:window-maximized="1"
     inkscape:current-layer="layer1"
     showguides="true"><sodipodi:guide
       position="3470.4801,269.65563"
       orientation="1,0"
       id="guide48"
       inkscape:locked="false" /></sodipodi:namedview><defs
     id="defs2"><inkscape:path-effect
       effect="fillet_chamfer"
       id="path-effect64"
       is_visible="true"
       lpeversion="1"
       nodesatellites_param="F,0,0,1,0,7,0,1 @ F,0,0,1,0,7,0,1 @ F,0,0,1,0,7,0,1 @ F,0,0,1,0,7,0,1 @ F,0,0,1,0,7,0,1 @ F,0,0,1,0,7,0,1 @ F,0,0,1,0,7,0,1 @ F,0,0,1,0,7,0,1 @ F,0,0,1,0,7,0,1"
       radius="7"
       unit="px"
       method="auto"
       mode="F"
       chamfer_steps="1"
       flexible="false"
       use_knot_distance="true"
       apply_no_radius="true"
       apply_with_radius="true"
       only_selected="false"
       hide_knots="false" /><inkscape:path-effect
       effect="fillet_chamfer"
       id="path-effect62"
       is_visible="true"
       lpeversion="1"
       nodesatellites_param="F,0,0,1,0,7,0,1 @ F,0,0,1,0,7,0,1 @ F,0,0,1,0,7,0,1 @ F,0,0,1,0,7,0,1 @ F,0,0,1,0,7,0,1 @ F,0,0,1,0,7,0,1 @ F,0,0,1,0,7,0,1 @ F,0,0,1,0,7,0,1 @ F,0,0,1,0,7,0,1"
       radius="7"
       unit="px"
       method="auto"
       mode="F"
       chamfer_steps="1"
       flexible="false"
       use_knot_distance="true"
       apply_no_radius="true"
       apply_with_radius="true"
       only_selected="false"
       hide_knots="false" /><inkscape:path-effect
       effect="fillet_chamfer"
       id="path-effect60"
       is_visible="true"
       lpeversion="1"
       nodesatellites_param="F,0,0,1,0,7,0,1 @ F,0,0,1,0,7,0,1 @ F,0,0,1,0,7,0,1 @ F,0,0,1,0,7,0,1 @ F,0,0,1,0,7,0,1 @ F,0,0,1,0,7,0,1 @ F,0,0,1,0,7,0,1 @ F,0,0,1,0,7,0,1 @ F,0,0,1,0,7,0,1"
       radius="7"
       unit="px"
       method="auto"
       mode="F"
       chamfer_steps="1"
       flexible="false"
       use_knot_distance="true"
       apply_no_radius="true"
       apply_with_radius="true"
       only_selected="false"
       hide_knots="false" /><inkscape:path-effect
       effect="fillet_chamfer"
       id="path-effect58"
       is_visible="true"
       lpeversion="1"
       nodesatellites_param="F,0,0,1,0,7,0,1 @ F,0,0,1,0,7,0,1 @ F,0,0,1,0,7,0,1 @ F,0,0,1,0,7,0,1 @ F,0,0,1,0,7,0,1 @ F,0,0,1,0,7,0,1 @ F,0,0,1,0,7,0,1 @ F,0,0,1,0,7,0,1 @ F,0,0,1,0,7,0,1"
       radius="7"
       unit="px"
       method="auto"
       mode="F"
       chamfer_steps="1"
       flexible="false"
       use_knot_distance="true"
       apply_no_radius="true"
       apply_with_radius="true"
       only_selected="false"
       hide_knots="false" /><inkscape:path-effect
       effect="fillet_chamfer"
       id="path-effect56"
       is_visible="true"
       lpeversion="1"
       nodesatellites_param="F,0,0,1,0,0,0,1 @ F,0,0,1,0,0,0,1 @ F,0,0,1,0,0,0,1 @ F,0,0,1,0,0,0,1 @ F,0,0,1,0,0,0,1 @ F,0,0,1,0,0,0,1 @ F,0,0,1,0,0,0,1 @ F,0,0,1,0,0,0,1 @ F,0,0,1,0,0,0,1"
       radius="0"
       unit="px"
       method="auto"
       mode="F"
       chamfer_steps="1"
       flexible="false"
       use_knot_distance="true"
       apply_no_radius="true"
       apply_with_radius="true"
       only_selected="false"
       hide_knots="false" /><inkscape:path-effect
       effect="fillet_chamfer"
       id="path-effect55"
       is_visible="true"
       lpeversion="1"
       nodesatellites_param="F,0,0,1,0,7,0,1 @ F,0,0,1,0,7,0,1 @ F,0,0,1,0,7,0,1 @ F,0,0,1,0,7,0,1 @ F,0,0,1,0,7,0,1 @ F,0,0,1,0,7,0,1 @ F,0,0,1,0,7,0,1 @ F,0,0,1,0,7,0,1 @ F,0,0,1,0,7,0,1"
       radius="7"
       unit="px"
       method="auto"
       mode="F"
       chamfer_steps="1"
       flexible="false"
       use_knot_distance="true"
       apply_no_radius="true"
       apply_with_radius="true"
       only_selected="false"
       hide_knots="false" /><inkscape:path-effect
       effect="fillet_chamfer"
       id="path-effect54"
       is_visible="true"
       lpeversion="1"
       nodesatellites_param="F,0,0,1,0,7,0,1 @ F,0,0,1,0,7,0,1 @ F,0,0,1,0,7,0,1 @ F,0,0,1,0,7,0,1 @ F,0,0,1,0,7,0,1 @ F,0,0,1,0,7,0,1 @ F,0,0,1,0,7,0,1 @ F,0,0,1,0,7,0,1 @ F,0,0,1,0,7,0,1"
       radius="7"
       unit="px"
       method="auto"
       mode="F"
       chamfer_steps="1"
       flexible="false"
       use_knot_distance="true"
       apply_no_radius="true"
       apply_with_radius="true"
       only_selected="false"
       hide_knots="false" /><inkscape:path-effect
       effect="fillet_chamfer"
       id="path-effect53"
       is_visible="true"
       lpeversion="1"
       nodesatellites_param="F,0,0,1,0,7,0,1 @ F,0,0,1,0,7,0,1 @ F,0,0,1,0,7,0,1 @ F,0,0,1,0,7,0,1 @ F,0,0,1,0,7,0,1 @ F,0,0,1,0,7,0,1 @ F,0,0,1,0,7,0,1 @ F,0,0,1,0,7,0,1 @ F,0,0,1,0,7,0,1"
       radius="7"
       unit="px"
       method="auto"
       mode="F"
       chamfer_steps="1"
       flexible="false"
       use_knot_distance="true"
       apply_no_radius="true"
       apply_with_radius="true"
       only_selected="false"
       hide_knots="false" /><inkscape:path-effect
       effect="fillet_chamfer"
       id="path-effect52"
       is_visible="true"
       lpeversion="1"
       nodesatellites_param="F,0,0,1,0,7,0,1 @ F,0,0,1,0,7,0,1 @ F,0,0,1,0,7,0,1 @ F,0,0,1,0,7,0,1 @ F,0,0,1,0,7,0,1 @ F,0,0,1,0,7,0,1 @ F,0,0,1,0,7,0,1 @ F,0,0,1,0,7,0,1 @ F,0,0,1,0,7,0,1"
       radius="7"
       unit="px"
       method="auto"
       mode="F"
       chamfer_steps="1"
       flexible="false"
       use_knot_distance="true"
       apply_no_radius="true"
       apply_with_radius="true"
       only_selected="false"
       hide_knots="false" /><inkscape:path-effect
       effect="fillet_chamfer"
       id="path-effect51"
       is_visible="true"
       lpeversion="1"
       nodesatellites_param="F,0,0,1,0,7,0,1 @ F,0,0,1,0,7,0,1 @ F,0,0,1,0,7,0,1 @ F,0,0,1,0,7,0,1 @ F,0,0,1,0,7,0,1 @ F,0,0,1,0,7,0,1 @ F,0,0,1,0,7,0,1 @ F,0,0,1,0,7,0,1 @ F,0,0,1,0,7,0,1"
       radius="7"
       unit="px"
       method="auto"
       mode="F"
       chamfer_steps="1"
       flexible="false"
       use_knot_distance="true"
       apply_no_radius="true"
       apply_with_radius="true"
       only_selected="false"
       hide_knots="false" /><inkscape:path-effect
       effect="fillet_chamfer"
       id="path-effect48"
       is_visible="true"
       lpeversion="1"
       nodesatellites_param="F,0,0,1,0,19,0,1 @ F,0,0,1,0,19,0,1 @ F,0,0,1,0,19,0,1 @ F,0,0,1,0,19,0,1 @ F,0,0,1,0,19,0,1 @ F,0,0,1,0,19,0,1 @ F,0,0,1,0,19,0,1 @ F,0,0,1,0,19,0,1 @ F,0,0,1,0,19,0,1 @ F,0,0,1,0,19,0,1 @ F,0,0,1,0,19,0,1 @ F,0,0,1,0,19,0,1 @ F,0,0,1,0,19,0,1 @ F,0,0,1,0,20,0,1"
       radius="20"
       unit="px"
       method="auto"
       mode="F"
       chamfer_steps="1"
       flexible="false"
       use_knot_distance="true"
       apply_no_radius="true"
       apply_with_radius="true"
       only_selected="false"
       hide_knots="false" /><inkscape:path-effect
       effect="fillet_chamfer"
       id="path-effect47"
       is_visible="true"
       lpeversion="1"
       nodesatellites_param="F,0,0,1,0,11,0,1 @ F,0,0,1,0,11,0,1 @ F,0,0,1,0,11,0,1 @ F,0,0,1,0,11,0,1 @ F,0,0,1,0,11,0,1 @ F,0,0,1,0,11,0,1"
       radius="11"
       unit="px"
       method="auto"
       mode="F"
       chamfer_steps="1"
       flexible="false"
       use_knot_distance="true"
       apply_no_radius="true"
       apply_with_radius="true"
       only_selected="false"
       hide_knots="false" /><inkscape:path-effect
       effect="fillet_chamfer"
       id="path-effect46"
       is_visible="true"
       lpeversion="1"
       nodesatellites_param="F,0,0,1,0,30,0,1 @ F,0,0,1,0,30,0,1 @ F,0,0,1,0,30,0,1 @ F,0,0,1,0,30,0,1 | F,0,0,1,0,30,0,1 @ F,0,0,1,0,30,0,1 @ F,0,0,1,0,30,0,1 @ F,0,0,1,0,30,0,1 @ F,0,0,1,0,30,0,1 @ F,0,0,1,0,30,0,1 @ F,0,0,1,0,30,0,1 @ F,0,0,1,0,30,0,1 @ F,0,0,1,0,30,0,1 | F,0,0,1,0,30,0,1 @ F,0,0,1,0,30,0,1 @ F,0,0,1,0,30,0,1 @ F,0,0,1,0,30,0,1 @ F,0,0,1,0,30,0,1 @ F,0,0,1,0,30,0,1 @ F,0,0,1,0,30,0,1 @ F,0,0,1,0,30,0,1 @ F,0,0,1,0,30,0,1"
       radius="30"
       unit="px"
       method="auto"
       mode="F"
       chamfer_steps="1"
       flexible="false"
       use_knot_distance="true"
       apply_no_radius="true"
       apply_with_radius="true"
       only_selected="false"
       hide_knots="false" /><rect
       x="916.28906"
       y="645.51953"
       width="298.36328"
       height="216.52734"
       id="rect2" /><linearGradient
       id="linearGradient5960"
       inkscape:collect="always"><stop
         id="stop5962"
         offset="0"
         style="stop-color:#637ddf;stop-opacity:1" /><stop
         style="stop-color:#649afa;stop-opacity:1"
         offset="0.23168644"
         id="stop5964" /><stop
         id="stop5966"
         offset="1"
         style="stop-color:#719efa;stop-opacity:1" /></linearGradient><linearGradient
       y2="515.97058"
       x2="282.26105"
       y1="338.62445"
       x1="213.95642"
       gradientTransform="translate(983.36076,601.38885)"
       gradientUnits="userSpaceOnUse"
       id="linearGradient5855"
       xlink:href="#linearGradient5960"
       inkscape:collect="always" /></defs><g
     inkscape:label="Layer 1"
     inkscape:groupmode="layer"
     id="layer1"><rect
       style="fill:#353e43;fill-opacity:1;stroke-width:0.833332"
       id="rect2603"
       width="1600"
       height="900"
       x="8.5265128e-14"
       y="0" /><path
       style="fill:#59c99c;fill-opacity:1;stroke-width:2.15502"
       d="m 6931.2608,614.64395 4.1908,-1.10529 4.5248,1.37002 4.5252,1.37021 3.2094,8.289 3.2094,8.28914 33.3571,34.81271 33.357,34.81278 52.9421,0.0325 52.9419,0.0325 42.6905,-42.69029 42.6903,-42.6903 127.988,0.0109 127.9879,0.0109 59.2688,-59.26858 59.2684,-59.26861 29.6243,-0.26175 29.6243,-0.26176 39.3429,-40.8216 39.3429,-40.82153 3.3874,-8.41372 3.3872,-8.41355 2.1689,-2.16887 2.169,-2.16893 7.4801,-8e-5 7.4806,-7e-5 4.5321,4.53202 4.5321,4.53187 v 4.78455 4.78469 l -2.7825,4.6469 -2.7825,4.64693 -8.0791,2.8793 -8.0796,2.87927 -43.2343,41.54365 -43.2341,41.54365 -26.9073,-0.0625 -26.9072,-0.0625 -59.4677,59.46784 -59.468,59.46785 -127.9879,-0.0109 -127.988,-0.0109 -44.212,44.21206 -44.2123,44.21213 -60.0614,-0.12958 -60.0612,-0.12998 -36.4456,-35.17423 -36.446,-35.17417 -8.4186,-3.7721 -8.4186,-3.77209 -2.0955,-4.56279 -2.0952,-4.56262 1.4101,-4.6569 1.4102,-4.65678 3.5744,-3.48307 3.5742,-3.4831 z"
       id="path46" /><path
       style="fill:#59c99c;fill-opacity:1;stroke-width:2.15502"
       d="m 6696.1177,849.56434 h 6.0955 l 2.8611,2.86161 2.862,2.86145 3.3031,8.04519 3.3036,8.04503 11.751,13.53513 11.7505,13.53526 -0.029,80.3106 -0.027,80.31039 25.4083,25.4085 25.4085,25.4084 0.7181,23.5165 0.7181,23.5163 -19.5264,20.9142 -19.5266,20.9142 -1.8397,5.7792 -1.84,5.7793 -0.2415,12.7109 -0.2415,12.7107 59.5151,59.515 59.5147,59.515 -0.042,38.8568 -0.042,38.8569 -43.5404,43.541 -43.541,43.5407 0.4574,93.2579 0.4578,93.2579 3.2902,8.9001 3.2907,8.9003 0.339,4.9941 0.3392,4.994 -4.8314,4.8318 -4.8319,4.8314 -6.5146,-0.3424 -6.5149,-0.3423 -3.0743,-1.4968 -3.0746,-1.4973 -2.1038,-4.5936 -2.1038,-4.5938 2.4658,-7.5962 2.4658,-7.5961 1.3574,-18.4527 1.3571,-18.4527 0.4896,-83.5677 0.4898,-83.5677 43.3342,-43.3343 43.3342,-43.3342 -0.058,-29.7134 -0.056,-29.7133 -59.4339,-59.4339 -59.4334,-59.4338 0.1442,-26.5222 0.1444,-26.5223 20.9043,-21.892 20.9044,-21.8922 1.3213,-11.4089 1.3216,-11.409 -4.0614,-7.1848 -4.0613,-7.1848 -22.093,-22.1235 -22.0932,-22.1234 0.1638,-68.71197 0.1638,-68.7117 -1.4321,-13.31807 -1.432,-13.31797 -9.8169,-9.81696 -9.8172,-9.8171 -7.7563,-3.18481 -7.7563,-3.18483 -3.5367,-3.53693 -3.5375,-3.53709 1.0148,-5.75887 1.0144,-5.75884 4.9942,-4.99436 4.9946,-4.99436 z"
       id="path45" /><path
       style="fill:#59c99c;fill-opacity:1;stroke-width:2.15502"
       d="m 6731.3935,814.86299 6.4422,0.22817 1.8123,1.81229 1.8121,1.8123 3.4054,8.39568 3.4057,8.39553 20.793,22.30745 20.7932,22.30734 -0.027,69.66235 -0.027,69.6623 32.9057,32.9057 32.9056,32.9057 -0.3755,20.1961 -0.3751,20.1964 -1.643,5.3698 -1.6427,5.3696 -9.8091,11.6039 -9.8082,11.604 -1.4975,7.8929 -1.4976,7.8928 1.0793,7.248 1.0795,7.2478 29.2021,30.5722 29.2024,30.5719 23.1839,0.1444 23.1841,0.1441 23.6549,22.6744 23.655,22.6746 h 3.8068 3.8073 l 4.969,4.9692 4.9696,4.9693 -0.2277,6.442 -0.2275,6.4419 -3.3169,3.3168 -3.3171,3.3167 -7.0123,0.8378 -7.0125,0.8375 -3.6393,-1.8857 -3.6392,-1.8857 -3.3182,-8.0819 -3.3185,-8.0818 -13.9669,-15.7792 -13.9673,-15.7793 -6.9673,-4.7662 -6.9676,-4.7662 -21.4168,-0.3301 -21.417,-0.3301 -33.5397,-33.5398 -33.54,-33.5399 0.3649,-20.7302 0.3646,-20.7304 3.1456,-7.6616 3.1462,-7.6614 7.7437,-7.7437 7.7441,-7.7437 2.1324,-6.7013 2.1333,-6.7011 -1.3247,-9.8634 -1.3252,-9.8636 -31.7532,-32.771 -31.754,-32.7713 0.029,-69.81576 0.027,-69.81553 -16.8352,-16.83543 -16.8351,-16.8352 -11.0616,-6.48985 -11.0614,-6.48983 -2.7369,-2.73709 -2.7373,-2.73713 0.2636,-5.30852 0.2638,-5.30856 5.5351,-5.53505 5.5349,-5.53497 z"
       id="path44" /><path
       style="fill:#59c99c;fill-opacity:1;stroke-width:2.15502"
       d="m 6762.3932,782.13692 6.0009,-1.05722 4.7484,6.30844 4.7483,6.30841 5.2758,8.43881 5.2755,8.43876 31.9493,32.08208 31.9497,32.08222 -0.031,56.35075 -0.031,56.35052 48.0154,48.01651 48.0158,48.0168 -1.0368,41.9104 -1.0372,41.9102 21.2983,20.1152 21.2982,20.1149 7.7682,1.8956 7.7684,1.8956 2.832,7.9956 2.8325,7.9955 -2.9708,4.9609 -2.9701,4.9611 -5.4146,2.0249 -5.4146,2.0248 -5.588,-2.0897 -5.5883,-2.09 -7.9631,-13.0305 -7.9633,-13.0303 -17.7043,-17.7043 -17.7041,-17.7041 0.5819,-42.0854 0.5817,-42.0855 -48.1997,-48.1995 -48.1997,-48.1996 0.1554,-56.50672 0.1555,-56.50648 -33.5081,-32.01688 -33.5075,-32.01685 -9.1105,-4.22508 -9.1106,-4.22521 -1.4016,-1.40144 -1.4014,-1.40147 v -7.48074 -7.48056 l 4.3017,-4.30166 4.3014,-4.3017 z"
       id="path43" /><path
       style="fill:#59c99c;fill-opacity:1;stroke-width:2.15502"
       d="m 6817.7356,719.96804 6.0049,-1.0579 3.9422,5.58671 3.9426,5.58664 6.1019,9.13671 6.1013,9.13672 83.7674,83.94906 83.7677,83.94918 18.1904,-0.0955 18.1907,-0.0955 87.72,87.71984 87.7198,87.7199 15.8631,-0.1371 15.8629,-0.1372 5.8987,-2.6807 5.8986,-2.6807 20.6623,-20.6622 20.6619,-20.6622 54.9468,-0.6262 54.9464,-0.6262 10.886,-3.9243 10.886,-3.9243 4.4064,0.5982 4.4064,0.5982 3.9514,3.8547 3.952,3.8547 0.2193,6.212 0.2192,6.2121 -2.1665,4.1812 -2.1663,4.1811 -6.3416,1.3209 -6.3417,1.3209 -9.6303,-3.8514 -9.6304,-3.8515 -51.3501,-0.4963 -51.3501,-0.4964 -23.8084,23.8087 -23.8087,23.8086 -28.1892,-0.058 -28.1896,-0.058 -86.8771,-86.8771 -86.8775,-86.87733 -17.7294,0.0933 -17.7295,0.0933 -88.1147,-86.15597 -88.1147,-86.15597 -8.4891,-5.22527 -8.489,-5.22531 -4.8587,-3.22069 -4.8585,-3.22068 v -6.39699 -6.39698 l 4.9941,-4.99435 4.9943,-4.99435 z"
       id="path42" /><path
       style="fill:#59c99c;fill-opacity:1;stroke-width:2.15502"
       d="m 6856.5656,685.4371 3.6781,-2.41741 5.2707,-0.31403 5.2714,-0.31408 3.7992,5.40562 3.7991,5.40545 6.1013,9.13669 6.1018,9.13675 67.7362,67.9176 67.7358,67.91746 53.3012,-0.0327 53.3014,-0.0327 73.2076,73.20774 73.2079,73.20789 17.5205,-0.0918 17.5206,-0.0918 46.2305,-46.23073 46.2309,-46.23071 33.4669,-0.65966 33.4672,-0.6596 15.6616,-1.23032 15.6613,-1.23035 2.5719,-2.57165 2.5716,-2.5717 7.4805,-3e-5 7.4806,3e-5 5.1664,5.16654 5.1667,5.16645 -0.325,5.00838 -0.3251,5.00836 -2.4346,4.57176 -2.4347,4.57173 -6.3418,1.32094 -6.3414,1.32088 -9.6649,-3.86524 -9.6649,-3.86535 -40.6518,-0.47938 -40.6515,-0.47944 -46.6031,46.60274 -46.6025,46.60267 -26.6656,0.062 -26.6654,0.062 -73.1917,-73.19176 -73.1917,-73.19189 -52.8965,0.0325 -52.8967,0.0325 -73.3698,-71.83117 -73.3697,-71.83141 -10.0898,-4.84975 -10.09,-4.84973 -1.8437,-4.93048 -1.844,-4.93048 2.8847,-5.73565 2.8841,-5.73577 z"
       id="path41" /><path
       style="fill:#59c99c;fill-opacity:1;stroke-width:2.15502"
       d="m 6894.811,649.55328 6.7253,-2.74371 4.4311,2.65308 4.4313,2.65326 3.5026,8.6525 3.5028,8.65237 44.2649,45.64105 44.265,45.641 56.5076,-0.15684 56.5076,-0.15684 35.0192,35.01924 35.0192,35.01922 17.5206,0.0916 17.5205,0.0918 56.4359,-56.43603 56.436,-56.43605 129.6204,0.10853 129.62,0.10825 62.6305,-63.84721 62.6305,-63.84722 3.8168,-8.56036 3.817,-8.56037 6.5782,-2.68386 6.5785,-2.68384 3.5698,1.58983 3.5697,1.5899 3.6255,3.62558 3.6255,3.62556 -0.2275,6.442 -0.2305,6.44201 -4.7412,4.7413 -4.7417,4.74131 -3.8076,-10e-4 -3.8081,-10e-4 -66.2858,65.37645 -66.2849,65.37651 -69.6942,0.4022 -69.6939,0.40211 -59.2265,0.66354 -59.2262,0.66354 -56.1814,56.18141 -56.1814,56.1814 -28.1892,-0.0585 -28.1893,-0.0588 -35.035,-35.03493 -35.0347,-35.03475 -56.351,0.0306 -56.3507,0.0308 -42.7489,-42.6163 -42.749,-42.61646 -8.3468,-5.36792 -8.3464,-5.36796 -6.2223,-4.46099 -6.2229,-4.46101 0.3739,-5.26084 0.374,-5.26068 2.4352,-3.99017 2.4347,-3.99028 z"
       id="path40" /><path
       style="fill:#59c99c;fill-opacity:1;stroke-width:2.15502"
       d="m 6658.0216,884.61209 h 6.0955 l 5.8593,5.85925 5.8591,5.85914 -0.2636,5.30871 -0.2665,5.30842 -2.6932,2.6932 -2.693,2.69307 -10.8494,5.96227 -10.8497,5.96231 -10.8067,11.95639 -10.8072,11.95641 0.329,16.36132 0.3292,16.36107 14.7278,16.44162 14.7278,16.44133 1.9797,8.3869 1.9798,8.3866 -0.5427,13.3355 -0.543,13.3357 -3.0229,7.3619 -3.0231,7.3619 -3.9073,3.9074 -3.9076,3.9075 -3.0568,7.4451 -3.0573,7.4452 1.9689,8.1195 1.969,8.1193 7.0514,7.0517 7.0518,7.0517 4.1826,-0.389 4.1827,-0.3888 5.6726,5.6727 5.6725,5.6726 -0.2637,5.3087 -0.2637,5.3085 -3.9461,3.9459 -3.9459,3.9458 -3.4132,1.5204 -3.4135,1.5201 -6.9384,-2.2085 -6.9388,-2.2087 -4.0119,-8.5668 -4.0126,-8.5667 -5.6696,-7.5625 -5.6697,-7.5626 -2.7069,-8.4421 -2.7064,-8.4424 0.3133,-8.3466 0.3134,-8.3466 2.3731,-7.1975 2.3725,-7.1975 7.0639,-9.6911 7.0635,-9.6911 0.8866,-8.2584 0.8857,-8.2585 -1.5885,-6.5003 -1.5889,-6.5007 -11.2036,-11.2038 -11.2037,-11.2036 -3.477,-6.27378 -3.4775,-6.27377 -1.1958,-10.98279 -1.1956,-10.98284 1.1945,-14.04166 1.1944,-14.0416 14.5321,-16.99266 14.532,-16.99251 3.2378,-7.88595 3.238,-7.8858 2.0996,-2.09971 2.0998,-2.09967 z"
       id="path39" /><path
       style="fill:#59c99c;fill-opacity:1;stroke-width:2.15502"
       d="m 6795.8141,747.02392 7.6955,-0.91911 3.9384,5.52367 3.9385,5.52373 5.2898,8.4248 5.2893,8.4248 85.1692,85.30189 85.1698,85.30191 0.1527,51.96391 0.1527,51.96388 71.3725,71.3724 71.3724,71.3724 0.6216,27.6419 0.6221,27.6417 3.2671,5.426 3.2675,5.4259 0.2303,6.629 0.2304,6.6288 -4.375,4.3751 -4.3749,4.3753 -7.4807,-2e-4 h -7.4803 l -2.7781,-2.7779 -2.778,-2.7778 -1,-5.6772 -1.0001,-5.6774 3.5531,-9.2935 3.5534,-9.2937 0.775,-21.3208 0.7742,-21.3206 -71.8752,-71.8751 -71.8749,-71.875 0.1748,-51.9535 0.1777,-51.95374 -84.7512,-82.8696 -84.7517,-82.86968 -9.1923,-6.04576 -9.1924,-6.04576 -4.6595,-3.02808 -4.6598,-3.02808 0.2747,-5.50306 0.2748,-5.50304 3.5964,-5.39475 3.5967,-5.39462 z"
       id="path38" /><path
       style="fill:#59c99c;fill-opacity:1;stroke-width:2.15502"
       d="m 6962.0102,579.49455 7.3552,-2.88627 10.9041,-9.33118 10.9034,-9.33122 4.3298,-2.85948 4.3297,-2.85933 16.2395,-0.45278 16.2396,-0.45265 4.735,1.43228 4.7353,1.43217 12.9599,10.86356 12.9604,10.86373 13.384,0.12551 13.3849,0.1255 48.0781,-48.07818 48.0782,-48.07818 62.5644,0.11518 62.5641,0.11491 105.2912,-106.52091 105.2912,-106.52091 4.6468,-9.23854 4.6467,-9.23874 4.3565,-2.00362 4.3566,-2.00363 5.9448,1.04733 5.9451,1.04734 2.6233,2.62357 2.624,2.6237 0.5152,7.37258 0.5152,7.37261 -4.489,4.65378 -4.4894,4.65379 -8.5199,5.1944 -8.5201,5.19443 -107.1432,105.16603 -107.1436,105.16601 -60.4551,-0.0283 -60.4556,-0.0283 -48.2211,48.22114 -48.2215,48.2211 -19.2878,-0.64336 -19.288,-0.64316 -5.5269,-1.20893 -5.5268,-1.20876 -14.3022,-11.27742 -14.3023,-11.27729 -9.3663,-1.1e-4 -9.3664,8e-5 -10.955,9.78319 -10.9553,9.78323 -3.399,8.27854 -3.3996,8.27856 -4.2989,4.29901 -4.2988,4.29891 -5.759,-1.01451 -5.7588,-1.01457 -4.302,-4.30178 -4.3014,-4.30159 v -7.4807 -7.4805 l 2.0991,-1.84913 2.0991,-1.8491 z"
       id="path37" /><path
       style="fill:#59c99c;fill-opacity:1;stroke-width:2.15502"
       d="m 6490.8209,884.95374 6.634,0.2229 2.3115,3.78397 2.3111,3.78412 3.7524,8.43821 3.7524,8.43816 4.9856,5.11963 4.9858,5.11977 1.6296,5.02679 1.6301,5.02697 0.2919,15.94286 0.2923,15.94308 -1.9198,6.19894 -1.9198,6.19893 -7.8939,9.89237 -7.8938,9.89255 -1.3609,4.24249 -1.3604,4.24262 -0.5754,11.3453 -0.5757,11.3454 43.6412,43.6412 43.641,43.6411 -0.027,103.6034 -0.027,103.6037 32.0803,31.9371 32.0802,31.9372 20.7485,18.2813 20.7484,18.2815 3.485,-2e-4 h 3.4851 l 4.098,4.0979 4.0977,4.0979 0.6603,6.2807 0.6601,6.2806 -5.0498,5.0501 -5.0504,5.05 -8.0132,-0.6023 -8.0133,-0.6024 -3.1411,-4.7513 -3.141,-4.7515 -5.3059,-8.4084 -5.3061,-8.4085 -47.181,-47.3125 -47.1802,-47.3141 0.028,-103.6036 0.027,-103.6035 -43.4894,-43.4894 -43.4897,-43.4896 0.1943,-15.8058 0.1943,-15.8059 1.975,-9.87879 1.9753,-9.87898 4.7244,-4.75497 4.7246,-4.7551 4.3784,-7.74348 4.3782,-7.7438 v -11.24464 -11.2446 l -4.8627,-7.10848 -4.8627,-7.10855 -9.6167,-4.57573 -9.6163,-4.57592 -2.9879,-2.98789 -2.9877,-2.98794 0.2638,-5.30855 0.2636,-5.30856 5.5348,-5.535 5.5351,-5.535 z"
       id="path36" /><path
       style="fill:#59c99c;fill-opacity:1;stroke-width:2.15502"
       d="m 6964.3111,405.99153 7.4807,8e-5 2.1346,2.13457 2.1347,2.13474 19.9075,1.10491 19.9075,1.10496 64.6523,0.40622 64.6519,0.40613 30.0619,-1.40452 30.0615,-1.40469 2.8233,-2.82323 2.823,-2.8232 7.1734,0.85689 7.1734,0.85667 4.1004,4.10036 4.1002,4.10046 -0.2138,6.84008 -0.2165,6.8401 -4.6178,4.61806 -4.6182,4.61806 -5.0367,-0.29658 -5.0372,-0.2965 -7.596,-3.07051 -7.5964,-3.07052 -54.2089,-1.28764 -54.2088,-1.28768 -43.1406,1.05071 -43.1399,1.05079 -13.8986,1.00692 -13.8984,1.0071 -2.7225,2.72251 -2.7226,2.72253 -7.1733,-0.8569 -7.1734,-0.85668 -3.6733,-3.6734 -3.6732,-3.6733 -3e-4,-7.48072 v -7.48054 l 3.9483,-3.94811 3.9482,-3.94808 z"
       id="path35" /><path
       style="fill:#59c99c;fill-opacity:1;stroke-width:2.15502"
       d="m 6452.5698,848.77715 5.3087,0.26482 5.5943,5.59427 5.5944,5.59443 v 6.0953 6.09531 l -2.0997,2.09969 -2.0999,2.09969 -8.3866,3.41398 -8.3873,3.41385 -32.547,30.98579 -32.5467,30.98567 -0.031,59.10625 -0.027,59.1062 63.2599,63.26 63.2602,63.2603 v 131.036 131.0359 l 30.5135,30.5134 30.5131,30.5132 -0.1277,28.0624 -0.1277,28.0622 -32.9626,34.0858 -32.9628,34.0856 -2.2416,7.605 -2.2416,7.6049 -6.1663,2.1625 -6.1664,2.1626 -6.0809,-1.7127 -6.0805,-1.7125 -2.3167,-6.5812 -2.3165,-6.5812 2.7501,-5.7335 2.7496,-5.7334 6.9619,-2.834 6.9615,-2.8339 32.49,-31.1055 32.4897,-31.1056 0.094,-17.8359 0.095,-17.8357 -30.531,-30.5308 -30.5306,-30.5307 v -134.0839 -134.0841 l -63.2581,-63.2583 -63.2582,-63.2582 0.027,-66.2862 0.027,-66.28637 30.5247,-30.52456 30.5247,-30.52473 6.4899,-11.06131 6.4897,-11.0613 2.7373,-2.73711 2.7369,-2.73709 z"
       id="path34" /><path
       style="fill:#59c99c;fill-opacity:1;stroke-width:2.15502"
       d="m 6930.9777,371.27318 11.0514,-5.7107 12.2954,-12.10914 12.295,-12.10905 76.1684,0.0221 76.1687,0.0221 28.3895,-28.38947 28.3893,-28.38949 21.8009,0.56008 21.801,0.56023 6.0124,4.008 6.012,4.00818 12.5715,12.57157 12.5714,12.57158 5.8462,3.89719 5.8457,3.89737 16.1907,0.72799 16.1903,0.72791 118.0611,-119.76923 118.0605,-119.769399 4.5443,-7.646283 4.5443,-7.646393 3.1087,-5.089871 3.1097,-5.089898 h 7.8011 l 7.8009,-2.7e-5 4.5813,4.581392 4.5815,4.581419 -0.2138,6.646141 -0.2138,6.646208 -7.8485,5.865955 -7.8485,5.865968 -125.5647,123.516238 -125.5644,123.51637 -25.5245,0.0649 -25.5245,0.0649 -21.481,-20.10785 -21.4817,-20.10784 -6.9774,-2.16511 -6.9778,-2.16507 -7.883,0.26371 -7.8828,0.2637 -29.0242,28.08342 -29.0243,28.08328 -75.9894,-0.0221 -75.9898,-0.0221 -10.1616,10.16145 -10.1615,10.16155 -6.2012,11.80554 -6.2015,11.80558 -4.4156,2.03097 -4.4157,2.03097 -4.6571,-1.40988 -4.6568,-1.41004 -3.5706,-3.57063 -3.5707,-3.57079 -0.9575,-5.43584 -0.958,-5.43593 2.0456,-3.38107 2.0455,-3.38108 z"
       id="path33" /><path
       style="fill:#59c99c;fill-opacity:1;stroke-width:2.15502"
       d="m 6420.9104,815.56394 7.4243,0.88672 3.3985,3.3986 3.3988,3.39861 0.8868,7.42499 0.8869,7.42498 -5.492,3.97001 -5.4922,3.97004 -7.7245,4.46606 -7.7245,4.46602 -44.2439,44.17078 -44.2439,44.17087 0.034,53.14867 0.033,53.14901 -34.7278,35.642 -34.7273,35.6422 -1.2961,13.0918 -1.2961,13.0919 52.6968,52.6966 52.6964,52.6966 0.1141,72.4126 0.1141,72.4124 -24.6143,24.614 -24.6134,24.6138 -3.8118,5.7172 -3.8114,5.7173 -0.8208,12.8886 -0.8212,12.8888 41.2582,41.258 41.2583,41.2583 0.4271,59.9103 0.4272,59.9103 3.9598,9.9014 3.96,9.9017 -2.0639,5.5177 -2.0635,5.5182 -6.2826,2.6023 -6.2828,2.6024 -5.5755,-2.0852 -5.576,-2.0852 -2.0996,-5.9656 -2.0998,-5.9655 3.6023,-11.627 3.6031,-11.6269 1.2378,-54.235 1.2383,-54.2349 -41.3204,-41.4666 -41.3206,-41.4667 1.0362,-24.1071 1.0362,-24.107 28.1804,-28.229 28.1803,-28.2293 -0.027,-61.7147 -0.027,-61.7147 -52.1941,-52.1942 -52.1945,-52.1944 -0.5426,-23.8047 -0.5433,-23.8045 35.2432,-35.2433 35.2435,-35.2433 -0.033,-52.8471 -0.034,-52.84693 45.7787,-47.6614 45.7789,-47.66123 4.398,-7.79254 4.3981,-7.79273 3.1927,-4.74624 3.1922,-4.74641 z"
       id="path32" /><path
       style="fill:#59c99c;fill-opacity:1;stroke-width:2.15502"
       d="m 6895.3834,337.20265 4.8854,-1.20977 25.8567,-24.7548 25.8567,-24.75483 65.1996,0.0277 65.1993,0.0277 35.1024,-35.1022 35.1022,-35.1022 20.3597,0.21208 20.3594,0.21207 5.0238,1.63347 5.0234,1.63337 6.2442,6.24447 6.2443,6.24436 7.3621,3.0229 7.362,3.0229 13.3546,0.54371 13.355,0.54364 31.3812,-31.38115 31.3811,-31.38115 0.088,-17.07052 0.088,-17.07068 4.5624,-7.31848 4.5625,-7.31848 15.8663,-15.93945 15.8661,-15.939388 7.2652,-12.128903 7.2653,-12.128943 4.4294,-2.652198 4.43,-2.652183 6.3827,2.643857 6.383,2.643926 2.8503,5.685768 2.8499,5.685781 -1.7296,6.201704 -1.7299,6.20154 -8.3736,2.966174 -8.3739,2.966325 -18.6811,16.89261 -18.6817,16.89262 -4.7536,6.94949 -4.7539,6.94952 -0.3737,18.42641 -0.3739,18.42646 -33.5586,33.55849 -33.5582,33.55852 -26.587,-0.48724 -26.5871,-0.48727 -8.3644,-6.46666 -8.3645,-6.46664 -5.3646,-3.94799 -5.3648,-3.94797 -12.1624,0.14185 -12.1626,0.14184 -35.7986,34.91858 -35.799,34.9186 -65.9368,0.0719 -65.9363,0.0718 -20.9857,22.72159 -20.9853,22.72174 -4.2595,9.07637 -4.259,9.07659 -1.4016,1.4015 -1.4014,1.40152 -7.4804,8e-5 -7.4809,-1.1e-4 -4.3015,-4.30161 -4.302,-4.30176 -1.0142,-5.75887 -1.0149,-5.75888 4.9119,-4.8203 4.9115,-4.82028 z"
       id="path31" /><path
       style="fill:#59c99c;fill-opacity:1;stroke-width:2.15502"
       d="m 6383.9631,783.25088 5.7539,0.28709 4.5332,4.28332 4.5332,4.28335 1.5553,5.13666 1.5552,5.13667 -2.5481,4.25636 -2.5485,4.25617 -8.7245,3.43076 -8.7248,3.43078 -71.4496,70.2661 -71.4499,70.26601 0.1388,42.76395 0.1388,42.7639 -78.4334,78.5616 -78.4333,78.5615 -0.579,21.5166 -0.5788,21.5167 47.7841,47.7232 47.7838,47.723 20.6826,-1.2085 20.6825,-1.2087 10.1749,-4.2006 10.1751,-4.2007 6.2074,2.5712 6.2073,2.5712 2.8549,4.7679 2.8548,4.7681 -2.1602,6.7872 -2.1604,6.7872 -2.7842,2.7843 -2.7841,2.7842 -5.6848,1.0015 -5.6843,1.0014 -7.4264,-4.2754 -7.4263,-4.2754 -26.6956,-0.8064 -26.6956,-0.8063 -50.8479,-50.8479 -50.8479,-50.848 0.058,-29.7132 0.056,-29.7135 79.311,-79.3111 79.3111,-79.3111 -1.1225,-41.54493 -1.1226,-41.54474 66.4976,-66.59794 66.4972,-66.59802 9.0682,-12.26592 9.0675,-12.26585 3.8395,-5.36512 3.84,-5.36478 z"
       id="path30" /><path
       style="fill:#59c99c;fill-opacity:1;stroke-width:2.15502"
       d="m 6864.0363,302.8079 8.3241,-3.86672 36.9349,-35.19634 36.9356,-35.19612 29.9645,0.0564 29.9635,0.0564 17.5253,-17.58002 17.5252,-17.58009 11.9476,-14.75741 11.9473,-14.75734 3.4497,-7.35829 3.4501,-7.35829 6.3712,-1.79028 6.3716,-1.79028 5.7407,2.75341 5.741,2.75361 1.7838,6.34918 1.784,6.34921 -2.6259,5.47494 -2.626,5.47497 -10.4344,5.3398 -10.4341,5.33983 -29.1877,29.1873 -29.1872,29.18726 -30.5332,-0.11382 -30.5333,-0.11409 -36.8283,37.8392 -36.8282,37.83937 -2.0191,6.137 -2.0192,6.13717 -4.5796,2.74183 -4.5793,2.74198 -5.7029,-2.1327 -5.703,-2.13286 -2.7705,-2.77044 -2.7704,-2.77033 -0.8569,-7.17339 -0.8569,-7.17335 3.4956,-3.14034 3.4959,-3.14035 z"
       id="path29" /><path
       style="fill:#59c99c;fill-opacity:1;stroke-width:2.15502"
       d="m 6349.9069,750.51509 h 6.397 l 5.3335,5.33337 5.3332,5.33344 v 6.39703 6.39703 l -5.7665,3.83655 -5.7667,3.83668 -10.8915,7.86084 -10.8916,7.86063 -96.1055,96.95464 -96.1047,96.95478 -1.2235,8.57641 -1.2239,8.57621 -13.708,16.1119 -13.7073,16.1119 -93.6882,93.8377 -93.6886,93.8379 0.095,17.8007 0.095,17.8005 52.4515,51.4109 52.4515,51.4109 h 3.8084 3.8085 l 4.6895,4.6896 4.6893,4.6896 1.0148,5.7587 1.0145,5.7589 -4.9148,4.8174 -4.9149,4.8172 -4.2741,0.5615 -4.2739,0.5614 -5.114,-1.5596 -5.1144,-1.5595 -6.5026,-11.0833 -6.5029,-11.0832 -48.8531,-48.8533 -48.8537,-48.8535 0.058,-28.1893 0.058,-28.1895 96.6262,-96.8426 96.6262,-96.8425 10.6595,-12.7964 10.6595,-12.79631 1.2585,-8.80987 1.2586,-8.80974 98.7239,-100.89792 98.7234,-100.89798 6.7251,-10.03716 6.7245,-10.03732 3.2036,-4.87577 3.2038,-4.87568 z"
       id="path28" /><path
       style="fill:#59c99c;fill-opacity:1;stroke-width:2.15502"
       d="m 7257.0998,-207.22763 6.8399,0.21346 4.5888,4.58858 4.5885,4.58869 -0.3154,6.54194 -0.315,6.5418 -3.0035,4.85381 -3.0034,4.85367 -1.2498,60.75249 -1.2498,60.752482 -76.623,76.622975 -76.6234,76.623016 -42.5569,-0.516234 -42.557,-0.516194 -85.152,87.040435 -85.1521,87.04044 -4.7073,7.4832 -4.7075,7.4834 -3.5841,5.67251 -3.5839,5.67275 -6.3782,0.67037 -6.3774,0.67037 -5.7457,-5.74559 -5.7458,-5.74575 -0.2925,-5.86904 -0.2929,-5.86924 5.3801,-3.82465 5.3799,-3.82471 8.4247,-5.28968 8.425,-5.28967 88.4993,-88.36829 88.4993,-88.368262 41.5856,1.081517 41.5861,1.081503 74.2018,-74.20209 74.2022,-74.202023 -0.2929,-29.421796 -0.2928,-29.421799 -1.1117,-24.79319 -1.1121,-24.79319 -3.4566,-10.63919 -3.4568,-10.6392 1.5286,-3.43316 1.529,-3.43316 3.4196,-3.41929 3.4193,-3.41934 z"
       id="path27" /><path
       style="fill:#59c99c;fill-opacity:1;stroke-width:2.15502"
       d="m 6079.7289,906.7076 50.2517,0.0346 76.9035,-77.03775 76.9039,-77.03774 9.8501,-13.00722 9.8503,-13.00709 4.5966,-6.13047 4.5968,-6.13055 5.3106,0.27538 5.3117,0.27536 4.8422,2.90883 4.8422,2.90884 0.8407,7.03978 0.8411,7.03992 -3.2866,4.83983 -3.2863,4.83998 -7.844,3.14609 -7.8437,3.14628 -87.0446,85.58378 -87.0445,85.58413 -49.8503,-0.0344 -49.8502,-0.0344 -78.0062,78.00612 -78.0061,78.0061 1.0922,21.8786 1.092,21.8785 3.2336,11.1295 3.2336,11.1296 -1.7662,6.3378 -1.7666,6.3379 -6.5032,1.8375 -6.5032,1.8376 -5.3114,-2.5475 -5.3113,-2.5475 -3.0526,-5.0981 -3.0523,-5.0985 2.4866,-5.8101 2.4868,-5.8103 2.0945,-5.5246 2.0945,-5.5247 0.5303,-27.1973 0.5301,-27.1973 80.6311,-80.63083 80.6307,-80.63077 z"
       id="path26" /><path
       style="fill:#59c99c;fill-opacity:1;stroke-width:2.15502"
       d="m 5763.0761,1064.0061 4.783,-1.2723 28.5906,-26.3073 28.5915,-26.3074 127.3574,-127.14739 127.3565,-127.14914 67.1794,0.15711 67.1793,0.15711 25.133,-26.67708 25.133,-26.67702 4.2887,-9.17207 4.2887,-9.17207 3.6278,-1.87963 3.6279,-1.87981 7.0125,0.83747 7.0125,0.8377 2.9113,2.91141 2.9113,2.91145 v 7.48061 7.48059 l -5.0975,5.09798 -5.0981,5.0978 -3.8079,-10e-4 -3.8074,-10e-4 -29.744,28.77491 -29.7434,28.77503 -67.1704,0.116 -67.1704,0.11599 -149.3832,150.5731 -149.3835,150.57305 -6.5945,10.7889 -6.5946,10.7887 -5.94,0.2962 -5.9395,0.2963 -5.8589,-5.8592 -5.8593,-5.8591 v -6.0953 -6.0954 l 2.7126,-2.6209 2.7122,-2.621 z"
       id="path25" /><path
       style="fill:#59c99c;fill-opacity:1;stroke-width:2.15502"
       d="m 7059.9956,-355.36309 4.8238,-2.05826 5.4753,2.04765 5.4757,2.04766 3.8806,9.25676 3.8812,9.25675 49.5724,51.00025 49.5723,51.00023 0.1777,29.53428 0.1805,29.53424 -94.6769,94.676835 -94.677,94.676876 0.5127,25.143215 0.5124,25.143338 -90.9344,91.945206 -90.934,91.94536 8e-4,3.80859 8e-4,3.80862 -5.5245,5.52491 -5.5253,5.52495 -6.84,-0.21373 -6.8402,-0.21347 -4.1612,-4.16155 -4.1619,-4.16157 v -7.48072 -7.48051 l 1.9953,-1.95275 1.9972,-1.95119 9.3802,-4.33434 9.3797,-4.33454 88.2447,-86.99563 88.2443,-86.995812 -0.1554,-25.993053 -0.1555,-25.9931757 94.5519,-94.5518483 94.5521,-94.551781 -0.083,-20.8259 -0.08,-20.82568 -50.7442,-49.49447 -50.7442,-49.49425 -6.7048,-2.66223 -6.7053,-2.66242 -2.8591,-4.77503 -2.859,-4.7751 2.1326,-5.70293 2.1327,-5.70283 1.9292,-1.73707 1.9292,-1.73707 z"
       id="path24" /><path
       style="fill:#59c99c;fill-opacity:1;stroke-width:2.15502"
       d="m 6513.2436,484.446 -4.0983,10.23132 0.4356,15.61061 0.4349,15.61051 3.2936,8.53944 3.2935,8.5396 11.3089,11.56613 11.309,11.56586 12.8804,4.41753 12.8805,4.4174 10.4866,-0.68114 10.4859,-0.68112 12.3909,-4.51057 12.3905,-4.51075 9.8406,-9.96885 9.8408,-9.96889 4.6651,-12.57065 4.665,-12.57079 -0.1888,-12.47845 -0.1859,-12.4786 -3.6286,-10.67339 -3.6289,-10.67337 -12.2268,-12.15439 -12.2266,-12.15432 -8.173,-2.49424 -8.1724,-2.49421 -9.5456,-1.12113 -9.5458,-1.12116 -13.2768,3.29669 -13.2769,3.29668 -8.0963,5.34542 -8.0966,5.34563 -6.0688,7.64551 -6.0692,7.64549 z"
       id="path23" /><path
       style="fill:#59c99c;fill-opacity:1;stroke-width:2.15502"
       d="m 6532.8296,434.84483 8.1171,-4.07366 10.0251,-3.21759 10.0249,-3.21773 h 13.6677 l 13.6674,-2e-5 11.7552,4.37195 11.7551,4.37192 10.3964,6.91907 10.3961,6.91883 8.0732,11.27993 8.073,11.27988 4.4335,12.94115 4.4337,12.94109 -0.6519,16.91842 -0.6514,16.91827 -5.1975,11.41238 -5.1981,11.4122 -6.4948,8.48185 -6.4949,8.48186 -10.8617,7.18155 -10.8613,7.18144 -13.3612,4.12318 -13.361,4.12318 -14.4496,-0.48239 -14.45,-0.48252 -12.7971,-4.6293 -12.7976,-4.62943 -14.4762,-14.47639 -14.4764,-14.47636 -5.213,-14.60545 -5.213,-14.60533 v -14.98016 l -3e-4,-14.98031 5.2356,-14.44479 5.2351,-14.44477 11.8008,-12.71908 11.8003,-12.71904 z"
       id="path22" /><path
       style="fill:#59c99c;fill-opacity:1;stroke-width:2.15502"
       d="m 6420.0064,397.37295 0.6356,6.0472 12.8724,12.87209 12.8719,12.87205 -7.8259,21.38254 -7.8259,21.38248 -22.1576,0.90592 -22.1579,0.90582 -2.04,7.27291 -2.0402,7.27278 v 19.93988 19.9396 l 2.0124,7.16563 2.0125,7.16566 22.1868,1.01607 22.1861,1.01624 7.8246,21.37949 7.8251,21.37945 -12.8719,12.87208 -12.8721,12.87206 -0.6843,6.51057 -0.6844,6.51041 19.1277,19.12798 19.1284,19.12816 5.4395,0.003 5.4401,0.003 14.5724,-13.51438 14.5726,-13.51415 21.0417,8.03465 21.0423,8.0347 1.1491,22.53784 1.1495,22.53788 13.2103,1.54608 13.2097,1.54592 14.4873,-0.77868 14.4874,-0.77881 6.3068,-1.92261 6.3072,-1.92277 0.161,-21.82029 0.1638,-21.82006 21.8079,-7.90699 21.8073,-7.90713 13.204,13.2043 13.2045,13.2041 5.037,0.78215 5.0374,0.78201 21.3057,-20.0958 21.3057,-20.09596 -2.5315,-5.63721 -2.5317,-5.63736 -12.104,-12.10419 -12.1043,-12.10422 7.0414,-19.13582 7.042,-19.13574 1.5753,-2.40806 1.5751,-2.40808 22.2275,-1.20665 22.2281,-1.20667 0.05,-33.21146 0.053,-33.21134 -1.5139,-1.5139 -1.5139,-1.51408 -21.2716,-0.13406 -21.2709,-0.13406 -7.7817,-21.17126 -7.7814,-21.17131 12.9624,-14.52543 12.962,-14.52546 v -5.4029 -5.40287 l -19.8781,-19.87819 -19.8783,-19.87815 -5.121,0.79502 -5.1207,0.79498 -13.204,13.20421 -13.2041,13.20419 -21.8075,-7.90699 -21.8079,-7.90702 -0.1638,-21.82022 -0.161,-21.82006 -6.3072,-1.92279 -6.3068,-1.92277 -13.8054,-0.74246 -13.8054,-0.74256 -13.8775,1.22939 -13.8777,1.22931 -1.1637,22.81824 -1.164,22.81829 -21.1566,8.14959 -21.1567,8.14941 -12.2463,-12.13472 -12.2468,-12.13467 -5.7321,-1.88705 -5.7322,-1.88707 -6.3361,4.25015 -6.3362,4.25029 -14.6622,15.73621 -14.662,15.7364 z"
       id="path21" /><path
       style="fill:#59c99c;fill-opacity:1;stroke-width:2.15502"
       d="m 6457.4966,332.08291 8.5227,-6.71566 14.0949,13.33379 14.0954,13.33382 4.1852,2.61657 4.1851,2.61659 6.7872,-2.16024 6.7873,-2.16028 3.4889,-3.51952 3.489,-3.51954 1.748,-21.10957 1.7479,-21.10958 11.5053,-2.20911 11.5053,-2.20906 20.4929,-0.49597 20.4927,-0.49609 13.2616,1.48823 13.2618,1.48828 3.547,3.54669 3.5464,3.54657 1.8435,18.60582 1.8437,18.60578 3.6916,3.69146 3.6911,3.69148 6.5271,2.07749 6.527,2.07733 4.4243,-2.55472 4.4244,-2.55494 13.3256,-13.28313 13.3258,-13.28315 5.3513,3.03013 5.3506,3.03013 28.9529,28.95275 28.9529,28.95271 3.03,5.35093 3.0302,5.35094 -15.2095,15.20922 -15.2091,15.20927 v 6.21694 6.21711 l 2.4506,5.45781 2.4514,5.45795 6.5482,1.42125 6.5484,1.42126 15.9698,1.20617 15.9699,1.20617 1.1598,1.15995 1.16,1.15997 1.4346,12.59362 1.4351,12.59357 0.4016,15.90989 0.4019,15.91007 -1.9791,18.42965 -1.9792,18.4298 -1.2456,1.20288 -1.2458,1.20289 -18.4107,1.39919 -18.4103,1.39918 -4.7805,1.70462 -4.7805,1.70468 -2.8858,8.09843 -2.886,8.09846 4.011,7.09634 4.0111,7.09616 11.7072,11.72542 11.7071,11.72551 -6.1133,8.36298 -6.1135,8.36289 -21.9874,22.2037 -21.9874,22.20369 -8.4708,6.00539 -8.4714,6.00529 -13.3918,-13.08818 -13.392,-13.0883 -4.8045,-2.70977 -4.8043,-2.70971 -7.6894,2.01921 -7.6897,2.01937 -2.1956,4.23722 -2.1955,4.23718 -1.4958,19.97713 -1.496,19.97688 -8.4108,2.59647 -8.4113,2.5966 -32.2211,0.22096 -32.2215,0.22096 -7.472,-2.46037 -7.472,-2.46037 -1.3336,-4.40401 -1.3335,-4.40402 -1.1924,-15.10066 -1.1931,-15.10083 -2.6041,-4.34914 -2.6042,-4.34934 -6.5055,-2.69472 -6.5054,-2.69474 -4.2041,1.27287 -4.204,1.27283 -14.4868,14.48673 -14.4865,14.48658 -2.3515,-0.55515 -2.3517,-0.55514 -20.4274,-18.57103 -20.4272,-18.57136 -15.2602,-17.50221 -15.2602,-17.50222 15.2089,-15.2089 15.2088,-15.20887 3e-4,-8.90842 v -8.9086 l -4.3092,-4.30619 -4.3095,-4.30633 -20.3248,-2.04256 -20.325,-2.04267 -1.0892,-1.08938 -1.0897,-1.08956 -2.595,-11.59297 -2.5954,-11.59284 0.1471,-18.98534 0.1444,-18.98524 2.3544,-17.02375 2.3543,-17.02343 21.3611,-1.69161 21.3613,-1.69159 4.4563,-4.45615 4.456,-4.45617 3e-4,-8.9084 v -8.90857 l -15.1318,-15.1319 -15.132,-15.13192 10.6731,-12.64408 10.673,-12.64424 17.9143,-17.43565 17.9144,-17.4357 z"
       id="path20" /><path
       style="fill:#59c99c;fill-opacity:1;stroke-width:2.15502"
       d="m 6237.8881,508.5457 0.4016,11.02707 162.4499,162.53235 162.4503,162.53255 11.6106,-0.5891 11.6101,-0.58882 161.9605,-161.9604 161.9604,-161.96062 -1.1105,-12.42261 -1.1104,-12.42251 -161.171,-161.17129 -161.1716,-161.1713 -11.4209,-0.13569 -11.4212,-0.13601 -162.7199,162.71979 -162.7197,162.71972 z"
       id="path19" /><path
       style="fill:#59c99c;fill-opacity:1;stroke-width:2.15502"
       d="m 6573.7758,138.14809 24.5932,1.08877 172.4157,172.41593 172.4162,172.41595 1.0884,24.59289 1.0889,24.5929 -173.0697,173.06967 -173.0692,173.06956 -24.593,-1.08882 -24.5928,-1.08875 -172.4159,-172.41592 -172.416,-172.41596 -1.0889,-24.59288 -1.0886,-24.59291 173.0692,-173.06953 173.0699,-173.0697 z"
       id="path18" /><path
       style="fill:#59c99c;fill-opacity:1;stroke-width:2.15502"
       d="m 5878.0696,742.20944 28.238,0.27564 7.8035,3.20429 7.804,3.20435 5.283,5.28312 5.2832,5.28307 5.5636,2.49849 5.564,2.49861 17.6246,0.4163 17.625,0.41646 31.3987,-31.39862 31.398,-31.39847 79.3635,0.14657 79.3638,0.14628 15.2408,-16.75951 15.2407,-16.75969 4.2842,-9.17601 4.2852,-9.17608 3.6274,-1.87977 3.628,-1.8798 7.0123,0.83769 7.0127,0.83748 2.9113,2.91141 2.9116,2.91145 v 7.48077 7.48043 l -4.302,4.30181 -4.3015,4.30159 -5.8226,1.02584 -5.8223,1.02587 -20.4988,18.75281 -20.4987,18.75301 -78.7704,-0.0221 -78.7698,-0.0221 -30.5211,30.52121 -30.5212,30.52137 -25.0468,-0.0966 -25.0463,-0.0966 -8.0142,-3.31679 -8.0139,-3.31674 -6.6564,-6.65609 -6.656,-6.65605 -11.9758,-1.47661 -11.9764,-1.47661 -12.5643,1.1357 -12.5645,1.13589 -59.0094,59.00961 -59.01,59.00975 -0.3712,18.31459 -0.3716,18.31461 -18.7221,20.75666 -18.7216,20.75637 -5.2904,8.42388 -5.2903,8.42401 -3.842,5.3631 -3.8415,5.36326 -5.2865,-0.29849 -5.2867,-0.29837 -3.3649,-2.73054 -3.3649,-2.73055 -3.2179,-3.56884 -3.2178,-3.56907 1.356,-6.51071 1.3562,-6.51088 9.5762,-4.65212 9.5769,-4.6519 12.677,-10.66182 12.6776,-10.66173 8.4946,-10.7256 8.4952,-10.72591 0.3708,-18.28148 0.3703,-18.2814 62.4479,-62.44783 62.4478,-62.44769 z"
       id="path17" /><path
       style="fill:#59c99c;fill-opacity:1;stroke-width:2.15502"
       d="m 6949.5464,-378.89192 4.1909,-1.10516 4.369,1.32282 4.3691,1.32285 4.1016,9.12381 4.1019,9.12392 53.4603,54.73126 53.4601,54.73127 0.15,26.51693 0.1499,26.51691 -76.2383,76.2386 -76.2384,76.238587 0.027,56.350774 0.031,56.350746 -64.7005,64.855843 -64.7002,64.85582 -8.4999,11.31017 -8.4996,11.31017 -4.6135,6.51652 -4.6137,6.51654 -6.5674,5e-5 -6.5673,8e-5 -5.0085,-5.94393 -5.0084,-5.94397 1.082,-7.35493 1.082,-7.35476 10.0458,-4.37475 10.046,-4.37474 70.7426,-69.44936 70.743,-69.449507 -0.1304,-56.4822939 -0.1304,-56.4824841 76.2543,-76.254545 76.2546,-76.25454 -0.095,-17.85004 -0.095,-17.85005 -53.048,-51.67669 -53.0475,-51.67671 -8.4172,-3.77346 -8.4174,-3.77349 -2.095,-4.56261 -2.0954,-4.56281 1.41,-4.65676 1.4099,-4.65693 3.5746,-3.48306 3.5744,-3.48304 z"
       id="path16" /><path
       style="fill:#59c99c;fill-opacity:1;stroke-width:2.15502"
       d="m 5545.2141,882.675 4.8276,-1.26781 33.1123,-30.88847 33.1124,-30.88825 81.6511,-81.43185 81.6516,-81.43187 51.0474,0.033 51.0483,0.033 18.3228,18.21627 18.3231,18.21631 5.1472,1.44596 5.1475,1.44597 12.0283,0.45241 12.0277,0.45231 6.6423,-1.38354 6.6423,-1.38347 21.9994,-20.87611 21.9996,-20.87615 83.5462,-0.36803 83.5459,-0.36765 8.2767,-4.4607 8.277,-4.46069 6.5665,-13.2657 6.5667,-13.26584 4.6269,-1.40086 4.6271,-1.40088 5.7388,1.01097 5.739,1.01101 2.7776,2.77782 2.778,2.77792 -3e-4,7.48061 3e-4,7.48063 -5.0705,4.97301 -5.0701,4.97288 -5.1957,0.72059 -5.1952,0.72077 -6.8466,6.84671 -6.8468,6.84686 -10.2807,3.63417 -10.2806,3.63407 -80.2843,0.0727 -80.2842,0.0727 -22.131,22.13085 -22.1312,22.131 -29.7862,0.26315 -29.7865,0.26342 -19.9252,-19.92514 -19.9253,-19.92525 -43.4284,0.0386 -43.4283,0.0386 -102.7892,102.88963 -102.789,102.88961 -8.4251,11.38467 -8.425,11.38484 -3.8947,5.70841 -3.8948,5.70855 -6.3971,-1.6e-4 -6.3968,1.6e-4 -5.3335,-5.3334 -5.333,-5.33336 v -6.09534 -6.0953 l 3.4739,-3.38293 3.4746,-3.38288 z"
       id="path15" /><path
       style="fill:#59c99c;fill-opacity:1;stroke-width:2.15502"
       d="m 6468.0523,-130.59375 5.7588,-1.01454 3.3193,3.36507 3.3195,3.36521 3.8994,8.29122 3.8992,8.29123 25.8512,25.98494 25.8514,25.985053 -0.1776,66.1082183 -0.1777,66.1082587 -17.5142,19.057711 -17.5142,19.057659 -2.0513,7.61277 -2.051,7.61278 -7.9956,2.83222 -7.9955,2.83217 -4.9608,-2.97029 -4.9612,-2.97043 -2.0247,-5.41448 -2.0247,-5.41441 2.1238,-5.67865 2.1232,-5.67878 10.0155,-4.71757 10.0155,-4.717432 14.9391,-13.121262 14.9393,-13.121276 0.1694,-59.304248 0.1692,-59.304071 -24.7111,-22.973214 -24.7108,-22.973175 -8.9452,-4.323878 -8.9448,-4.323854 -2.689,-2.64462 -2.6889,-2.64444 v -6.09534 -6.09527 l 4.9943,-4.99435 4.9942,-4.99432 z"
       id="path14" /><path
       style="fill:#59c99c;fill-opacity:1;stroke-width:2.15502"
       d="m 5715.3821,499.23573 4.2401,-0.43048 10.7746,2.93962 10.7751,2.93961 44.5387,1.1761 44.5386,1.17607 63.0114,0.22761 63.0113,0.22762 44.2484,-44.24857 44.2488,-44.24877 18.7848,0.26315 18.7848,0.26288 6.2723,1.26293 6.2726,1.26281 5.3907,5.3601 5.3904,5.36003 7.241,4.09301 7.2408,4.09329 8.9046,0.76666 8.9044,0.76677 8.9557,-3.36111 8.9559,-3.36098 4.5502,-4.5928 4.5502,-4.59283 1.6317,-5.98738 1.6315,-5.98727 4.789,-4.89514 4.7885,-4.89515 7.1731,0.85682 7.1733,0.85674 3.3169,3.31675 3.3166,3.31677 0.2192,6.17958 0.2194,6.17957 -3.668,5.7332 -3.6683,5.73301 -6.1146,1.27359 -6.1141,1.2736 -4.2595,4.22879 -4.2595,4.22893 -7.6986,4.35296 -7.6988,4.35284 -20.6334,0.37648 -20.6325,0.37677 -6.2513,-1.97873 -6.2511,-1.97854 -6.0716,-6.07185 -6.072,-6.07165 -5.5971,-2.51343 -5.5969,-2.51343 -12.2098,-1.21172 -12.2098,-1.2119 -44.3985,44.39872 -44.3985,44.39855 -85.4787,-0.16461 -85.4786,-0.1646 -31.6998,1.53206 -31.7,1.53254 -2.5472,2.5471 -2.5474,2.54721 -6.84,-0.21373 -6.8399,-0.21347 -4.1616,-4.16156 -4.1616,-4.16161 -2e-4,-7.48062 2e-4,-7.48061 3.5876,-3.58755 3.5877,-3.58754 z"
       id="path13" /><path
       style="fill:#59c99c;fill-opacity:1;stroke-width:2.15502"
       d="m 6251.8266,-68.226078 7.1734,-0.856819 3.7993,3.799047 3.7989,3.799236 1.2848,4.243565 1.2847,4.243605 -3.8052,8.882058 -3.8054,8.882275 -0.3858,19.015945 -0.3856,19.015999 24.5426,24.542578 24.5427,24.542783 -0.1638,39.736304 -0.1638,39.736442 35.7337,34.36249 35.7334,34.36254 8.2148,2.83095 8.2146,2.83081 2.9361,5.82849 2.9356,5.82826 -2.1984,6.37404 -2.1985,6.37383 -7.5101,2.66032 -7.5102,2.66019 -5.1842,-3.10402 -5.1848,-3.10423 -4.9765,-8.91764 -4.9766,-8.91782 -35.2792,-36.75879 -35.2791,-36.75882 0.045,-37.67746 0.045,-37.677401 -24.2486,-24.248515 -24.2484,-24.248542 -0.4835,-26.388715 -0.4838,-26.388742 -3.1697,-3.169709 -3.17,-3.169872 v -7.480738 -7.480481 l 3.6735,-3.67338 3.6733,-3.673298 z"
       id="path12" /><path
       style="fill:#59c99c;fill-opacity:1;stroke-width:2.15502"
       d="m 6551.3537,-369.63684 7.4807,8e-5 2.9113,2.91145 2.9115,2.91141 0.8567,7.17325 0.8568,7.17339 -2.136,2.13601 -2.136,2.13601 -1.6616,20.51206 -1.662,20.51191 -0.3585,93.3567 -0.359,93.35672 43.6454,43.645158 43.6449,43.645031 -0.3789,18.682695 -0.3788,18.682586 -2.2605,6.868828 -2.2604,6.868963 -6.462,8.409858 -6.462,8.409994 -2.0216,8.563641 -2.0214,8.563613 1.8462,7.616062 1.846,7.61613 14.4793,14.473332 14.4797,14.473331 6.6406,2.088318 6.6411,2.08833 4.3382,4.33803 4.3377,4.33791 -0.2303,6.4419 -0.2277,6.44207 -3.6393,3.63946 -3.6395,3.63947 -8.9084,-7e-5 -8.9086,1.5e-4 -2.3036,-2.3039 -2.304,-2.30369 -2.6174,-5.96196 -2.6175,-5.96193 -15.0634,-17.775755 -15.0634,-17.775742 -2.028,-6.372057 -2.028,-6.372057 0.4854,-14.539791 0.4854,-14.539778 2.2868,-7.184135 2.2862,-7.184148 5.5096,-5.509248 5.5088,-5.509275 1.5678,-5.0891918 1.5679,-5.0890967 1.1963,-11.756304 1.1961,-11.7563585 -43.4938,-43.493965 -43.4942,-43.494018 -0.494,-91.20029 -0.4944,-91.20042 -1.5301,-26.63488 -1.5301,-26.63488 -2.9743,-2.97423 -2.9742,-2.9742 1.0145,-5.75888 1.0146,-5.75885 4.3018,-4.30169 4.3016,-4.30168 z"
       id="path11" /><path
       style="fill:#59c99c;fill-opacity:1;stroke-width:2.15502"
       d="m 6782.0862,-662.36945 4.3516,-1.15072 5.2067,2.33819 5.2065,2.33795 2.114,6.6418 2.1138,6.64178 -2.3748,4.51599 -2.3749,4.51575 -1.3216,27.58722 -1.3216,27.58749 -0.5457,152.6427 -0.5458,152.64276 55.7928,55.79266 55.7928,55.79267 -0.058,28.18944 -0.058,28.1893 -31.9857,31.98534 -31.9849,31.985367 0.027,63.973546 0.028,63.973518 -31.9256,32.102399 -31.9255,32.10238 -16.0121,18.49491 -16.0119,18.49505 v 3.43635 3.43645 l -4.2666,4.26671 -4.267,4.26672 -6.0178,-5e-5 -6.0177,1.1e-4 -4.828,-2.8909 -4.8281,-2.89074 -1.3012,-6.24726 -1.3013,-6.24734 2.9232,-4.88218 2.923,-4.88201 6.1404,-2.01595 6.1405,-2.01599 47.735,-46.74249 47.7345,-46.742646 -0.094,-64.066396 -0.095,-64.066261 31.9697,-31.969829 31.9702,-31.969778 0.091,-17.52053 0.092,-17.52048 -56.3396,-56.33962 -56.3399,-56.33968 -0.3759,-168.94845 -0.3758,-168.94822 -1.6978,-17.50844 -1.6977,-17.50812 -1.9703,-1.97058 -1.9703,-1.97054 0.2638,-5.30847 0.2636,-5.30869 4.4972,-4.40584 4.4975,-4.40585 z"
       id="path10" /><path
       style="fill:#59c99c;fill-opacity:1;stroke-width:2.15502"
       d="m 6646.0613,-661.33773 5.7537,0.28708 4.5339,4.28288 4.5335,4.2829 1.5552,5.1367 1.5553,5.13695 -2.5482,4.25603 -2.5485,4.2565 -8.6581,3.49685 -8.6584,3.49719 -31.1646,29.78818 -31.1647,29.78838 -0.8725,21.22327 -0.8724,21.22306 33.0269,33.02672 33.0262,33.0266 v 126.46401 l -0.027,126.46398 68.5913,68.591 68.5912,68.590966 -0.175,72.2061367 -0.1748,72.2061373 -32.9673,34.52382 -32.9668,34.52396 -2.9632,8.31485 -2.9632,8.31485 -5.4032,2.59174 -5.4031,2.59165 -6.3495,-1.7841 -6.3492,-1.78406 -2.7533,-5.74083 -2.7538,-5.7407 1.8038,-6.42022 1.8043,-6.42002 7.1543,-2.86706 7.1549,-2.86691 34.7705,-33.515203 34.7702,-33.515138 0.028,-61.9740204 0.027,-61.9739396 -69.3551,-69.355039 -69.3549,-69.35488 0.027,-126.46401 v -126.46402 l -31.9807,-31.98106 -31.9814,-31.98132 -0.053,-31.23722 -0.053,-31.2374 28.9144,-29.04535 28.9145,-29.04551 5.2894,-8.42482 5.2899,-8.42483 3.8246,-5.38013 3.8244,-5.37993 z"
       id="path9" /><path
       style="fill:#59c99c;fill-opacity:1;stroke-width:2.15502"
       d="m 5471.5778,595.20277 5.301,-2.57529 11.2736,4.25542 11.2734,4.25532 50.4502,0.58193 50.4498,0.58213 32.3494,32.34932 32.3494,32.34952 20.6733,0.36374 20.6737,0.36369 42.042,-42.04208 42.0422,-42.04198 149.3234,0.008 149.3237,0.008 25.9519,-25.95183 25.9517,-25.95169 20.5689,0.0792 20.569,0.079 28.2337,28.23366 28.2336,28.23363 35.4405,-0.36935 35.4405,-0.3694 12.6359,-1.39249 12.6359,-1.39245 2.341,-2.34092 2.3408,-2.3409 5.8787,-0.54523 5.8787,-0.54524 5.7878,3.91475 5.7885,3.91452 v 7.82122 7.82121 l -3.6735,3.67337 -3.6733,3.67332 -7.173,0.8568 -7.1734,0.85676 -2.7228,-2.7225 -2.7223,-2.72246 -13.8036,-1.10173 -13.8035,-1.10188 -39.2715,-0.34839 -39.2712,-0.34818 -27.9749,-27.02768 -27.9746,-27.02765 -6.7851,-1.40908 -6.7846,-1.40878 -6.7856,1.40922 -6.785,1.40938 -24.911,23.8697 -24.9107,23.86972 -148.22,0.68785 -148.2194,0.68769 -42.2109,42.21062 -42.2105,42.21067 -29.7135,-0.0558 -29.7132,-0.0558 -32.9264,-32.92613 -32.926,-32.92612 -47.83,1.48943 -47.8297,1.48924 -9.6932,3.49426 -9.693,3.49431 -4.8147,-2.88279 -4.8152,-2.88294 -2.5038,-5.2273 -2.5039,-5.22753 2.76,-6.38332 2.7592,-6.3833 z"
       id="path8" /><path
       style="fill:#59c99c;fill-opacity:1;stroke-width:2.15502"
       d="m 5431.34,412.08695 h 7.4809 l 1.4068,1.40696 1.4074,1.40707 3.404,8.39662 3.4046,8.39645 28.6944,30.22638 28.6945,30.22618 20.9996,0.0811 20.999,0.0808 32.0484,-32.04808 32.0477,-32.04793 129.5122,0.0109 129.512,0.0109 69.3549,-69.35502 69.3553,-69.35521 60.0084,0.18266 60.0086,0.18292 40.8268,39.18444 40.8275,39.18448 7.195,2.40553 7.195,2.40568 3.6449,3.64466 3.6443,3.64467 v 7.4808 7.48046 l -3.0001,2.99997 -2.9999,3.00008 -8.9409,0.76985 -8.941,0.76986 -5.2957,-7.10485 -5.2952,-7.10514 -6.1622,-9.0764 -6.1617,-9.07636 -32.6878,-32.87048 -32.6878,-32.87066 -51.0477,0.0333 -51.0477,0.0333 -68.5625,68.56263 -68.5625,68.5625 -129.5122,-0.0109 -129.5119,-0.0109 -32.7977,32.7976 -32.7974,32.79754 -29.7138,-0.0558 -29.7128,-0.0561 -28.2004,-28.12697 -28.2001,-28.12696 -7.7384,-4.45204 -7.7386,-4.452 -6.2772,-4.77981 -6.2763,-4.77992 1.057,-6.00084 1.0572,-6.00082 4.3017,-4.30164 4.3016,-4.30175 z"
       id="path7" /><path
       style="fill:#59c99c;fill-opacity:1;stroke-width:2.15502"
       d="m 6162.7776,-319.35053 7.4803,8e-5 1.4072,1.40697 1.407,1.4071 3.2841,7.99761 3.2838,7.99768 13.967,15.77928 13.9671,15.77928 6.9677,4.76623 6.9674,4.76626 21.417,0.32999 21.4165,0.33006 33.1413,33.14111 33.1408,33.14096 0.4253,17.94899 0.4249,17.94918 -1.9861,6.24334 -1.9867,6.24332 -7.5956,7.59562 -7.5955,7.59562 -2.6805,5.89875 -2.681,5.89875 -0.1388,15.86289 -0.1388,15.863051 32.0644,32.064377 32.0639,32.064228 -0.1442,73.265677 -0.1444,73.265707 22.8055,21.50507 22.8058,21.50507 6.9162,1.44077 6.9169,1.44079 3.5003,6.30864 3.5004,6.30863 -2.2562,6.4319 -2.2565,6.43171 -7.5101,2.66035 -7.5102,2.66014 -5.1565,-3.08755 -5.1567,-3.08737 -2.7094,-6.65791 -2.7098,-6.65769 -23.087,-24.48552 -23.0867,-24.4853 0.027,-72.809991 0.027,-72.81017 -32.8099,-32.809819 -32.8099,-32.809995 0.2054,-23.414065 0.2055,-23.41407 1.5727,-4.81597 1.5727,-4.81581 10.4193,-13.37285 10.4191,-13.37284 v -9.20031 -9.2005 l -6.9394,-9.24095 -6.9391,-9.24109 -22.5691,-22.79158 -22.5691,-22.79175 -21.4043,-0.54981 -21.4044,-0.54996 -6.9469,-4.97727 -6.9468,-4.97729 -13.0054,-12.89933 -13.0056,-12.89938 -7.7388,-4.45203 -7.7387,-4.452 -6.2766,-4.77991 -6.2769,-4.77986 1.0573,-6.00084 1.0573,-6.00082 4.3017,-4.30167 4.3018,-4.30168 z"
       id="path6" /><path
       style="fill:#59c99c;fill-opacity:1;stroke-width:2.15502"
       d="m 5852.6142,-5.7981528 25.4104,0.6971554 77.2516,77.2515384 77.2512,77.251379 46.9418,-0.0367 46.9418,-0.0367 77.9185,76.89639 77.9185,76.89626 3.8084,-9.1e-4 3.8085,-10e-4 5.68,5.6799 5.6798,5.67993 -0.8802,7.36898 -0.8802,7.36908 -4.7809,2.97007 -4.781,2.97007 -7.5623,-0.43084 -7.562,-0.43087 -3.1725,-4.71973 -3.1727,-4.71977 -4.4825,-7.70824 -4.4824,-7.70815 -72.3637,-72.43673 -72.3637,-72.43667 -47.202,0.0369 -47.2016,0.0367 -76.9983,-76.997942 -76.9977,-76.997829 -14.9493,-0.9987029 -14.9489,-0.9985809 -57.603,57.6026838 -57.6029,57.602821 0.617,21.1661 0.6173,21.16631 3.669,9.49008 3.6693,9.48996 -1.0003,5.67732 -1.0003,5.67729 -3.2049,3.20492 -3.205,3.20495 -6.8399,-0.21346 -6.8399,-0.21374 -4.1927,-4.19249 -4.1927,-4.1925 -1.3459,-4.44545 -1.3458,-4.44549 4.4388,-7.71029 4.439,-7.71037 0.6283,-27.93697 0.6282,-27.93695 60.2139,-60.213749 60.2138,-60.2138897 z"
       id="path5" /><path
       style="fill:#59c99c;fill-opacity:1;stroke-width:2.15502"
       d="m 6209.7904,-444.84771 5.0957,0.38348 2.7257,0.75914 2.7259,0.75916 4.0672,9.20994 4.0672,9.21 93.9198,95.03489 93.9199,95.03487 0.1222,26.54357 0.1223,26.54361 -17.2239,17.22377 -17.2234,17.22378 -2.7954,7.01189 -2.795,7.01183 0.2444,11.90473 0.2442,11.90476 4.5409,7.28415 4.5408,7.284113 17.4978,17.570808 17.4979,17.570808 -0.1389,83.928661 -0.1388,83.92866 14.4644,13.13879 14.4643,13.13873 6.6896,1.39353 6.6897,1.39336 3.5337,5.52274 3.5333,5.52261 -0.3087,3.32197 -0.3086,3.32196 -2.9515,4.92984 -2.9519,4.92967 -8.8624,0.76317 -8.8624,0.76302 -3.2703,-3.3161 -3.2699,-3.31616 -3.8995,-8.29123 -3.8995,-8.29121 -12.896,-13.02984 -12.896,-13.02978 0.027,-83.789809 0.027,-83.789792 -22.1358,-22.1359 -22.1358,-22.13605 0.058,-28.189259 0.058,-28.18938 17.9519,-17.95199 17.9519,-17.95204 1.9514,-6.27837 1.9512,-6.2784 -0.1833,-13.43297 -0.1831,-13.43278 -92.6473,-91.31754 -92.647,-91.31735 -10.1361,-5.10243 -10.1358,-5.10242 -1.0054,-6.6137 -1.0056,-6.61372 5.568,-6.47563 5.5681,-6.47559 z"
       id="path4" /><path
       style="fill:#59c99c;fill-opacity:1;stroke-width:2.15502"
       d="m 5932.3392,-205.06345 7.8209,3e-5 2.8458,2.8456 2.8456,2.84574 18.8099,1.2858 18.8099,1.2858 15.1267,-0.87323 15.1267,-0.87347 75.6866,75.68655 75.6867,75.686573 -0.1032,50.3560966 -0.1032,50.3559744 92.0453,91.109656 92.0458,91.10963 4.4156,0.40925 4.4151,0.4093 5.1904,6.14867 5.19,6.14859 -1.0351,7.03024 -1.0346,7.03042 -5.6744,2.83706 -5.6744,2.83719 -7.208,-1.04578 -7.2086,-1.04574 -2.747,-7.09259 -2.7469,-7.09275 -92.5356,-93.55506 -92.5351,-93.55506 0.033,-51.626575 0.033,-51.626479 -71.8004,-71.800456 -71.8005,-71.8005 -27.0317,0.4954 -27.0315,0.49552 -8.0043,3.32607 -8.0051,3.32598 -5.0367,0.29658 -5.0367,0.29651 -4.1666,-4.16643 -4.1666,-4.16645 -0.5448,-5.87863 -0.5455,-5.87862 3.9145,-5.7883 3.9151,-5.78816 z"
       id="path3" /><path
       style="fill:#59c99c;fill-opacity:1;stroke-width:2.15502"
       d="m 5596.3693,269.73028 6.8404,0.21375 1.6038,1.60369 1.6033,1.60348 38.1293,1.13436 38.1295,1.13417 143.7839,0.21764 143.7843,0.21735 54.1264,-54.07743 54.1264,-54.07762 24.1069,-1.03603 24.1071,-1.03623 35.3141,35.31427 35.3141,35.31408 54.8261,-0.0319 54.8257,-0.0319 32.8499,32.70651 32.8498,32.7067 20.7484,18.28134 20.7486,18.28138 h 3.4847 l 3.4852,1.5e-4 4.3358,4.33589 4.3362,4.33606 v 7.48048 l 2e-4,7.48062 -3.0001,3.0001 -2.9999,2.99997 -8.8844,0.76482 -8.8846,0.76495 -5.3657,-7.08642 -5.3662,-7.0861 -15.2879,-18.23595 -15.2886,-18.23595 -31.9272,-32.10432 -31.9277,-32.10412 -56.1069,0.0306 -56.107,0.0308 -34.9259,-33.92058 -34.9262,-33.92041 -5.8974,-1.72188 -5.8973,-1.72194 -9.6398,-0.26482 -9.64,-0.26481 -54.8257,54.82566 -54.8256,54.82563 -162.7988,0.47927 -162.7987,0.47917 -21.8709,1.33123 -21.8711,1.33088 -2.4947,2.49455 -2.4941,2.49431 h -6.0954 -6.0952 l -5.3335,-5.33342 -5.3335,-5.33339 v -6.09532 -6.09529 l 4.3061,-4.3059 4.3057,-4.30585 z"
       id="path2" /><path
       style="fill:#59c99c;fill-opacity:1;stroke-width:2.15502"
       d="m 5651.4722,-4.0943892 4.418,-1.1695182 20.6223,-17.9813296 20.6225,-17.981492 35.1175,-35.004607 35.1172,-35.004564 66.2863,0.025 66.2863,0.025 99.9581,99.958018 99.9577,99.957896 16.0658,-0.447819 16.0652,-0.447942 91.8913,90.880397 91.8912,90.88063 3.8084,-10e-4 3.8084,-9.1e-4 5.6803,5.67993 5.6798,5.6799 -0.8804,7.36898 -0.8796,7.36908 -4.8428,2.90866 -4.8419,2.90884 -5.3574,0.27773 -5.3566,0.27791 -5.0773,-7.13067 -5.0764,-7.13053 -6.3209,-8.91751 -6.3211,-8.91745 -83.7894,-84.01215 -83.7896,-84.01199 -15.6169,1.14534 -15.6166,1.14531 L 5990.8625,4.1157906 5890.7438,-96.003113 l -57.1431,0.02947 -57.1431,0.02975 -47.9202,48.051315 -47.9191,48.05299996 -5.3058,8.40830954 -5.3063,8.4084725 -3.2205,4.858722 -3.2208,4.858749 -6.397,-1.36e-4 -6.3969,1.63e-4 -5.3332,-5.333421 -5.3335,-5.333394 V 9.9325763 3.8372789 l 3.4742,-3.3829018 3.4743,-3.3828882 z"
       id="path1" /><path
       id="path5221"
       d="M 748.3473,81.205207 963.02441,453.03761 a 83.35999,83.35999 0 0 1 0,83.35999 L 748.34681,908.22994 A 83.35999,83.35999 0 0 1 676.15497,949.91 H 246.80015 A 83.35999,83.35999 0 0 1 174.60828,908.22994 L -40.069287,536.3976 a 83.35999,83.35999 0 0 1 0,-83.35999 L 174.60828,81.205207 a 83.35999,83.35999 0 0 1 72.19187,-41.680004 h 429.35529 a 83.35999,83.35999 0 0 1 72.19186,41.680004 z"
       style="fill:#1f282e;fill-opacity:1;stroke-width:4.37526" /><path
       d="m 5907.9331,1610.8568 c -7.6363,18.7154 -12.2395,30.9575 -20.7384,49.1183 5.2114,5.5249 11.6071,11.9554 21.9709,19.2218 -11.1677,-4.5951 -18.7557,-9.209 -24.4788,-13.997 -10.8782,22.6943 -27.919,55.029 -62.5018,117.169 27.2065,-15.6904 48.2528,-25.3629 67.9141,-29.0605 -0.8439,-3.6279 -1.3236,-7.5505 -1.2861,-11.6419 l 0.032,-0.8708 c 0.4287,-17.4159 9.4904,-30.8074 20.2212,-29.8964 10.731,0.911 19.0718,15.7708 18.6404,33.1867 a 49.193315,49.193315 0 0 1 -1.0958,9.3537 c 19.4254,3.7994 40.2709,13.4505 67.0835,28.9292 l -14.5224,-26.8634 c -7.1002,-5.5007 -14.5033,-12.6627 -29.607,-20.4168 10.3826,2.6981 17.8178,5.8089 23.5785,9.2894 -45.8172,-85.3113 -49.5308,-96.6451 -65.2426,-133.5213 z"
       fill="#1793d1"
       fill-rule="evenodd"
       id="path14568"
       style="fill:#0070ab;fill-opacity:1;stroke-width:2.67938" /><path
       d="m 5982.9601,1870.7614 h -79.9513 v -8.87 -8.9915 h 35.4799 35.6014 v -8.8699 -8.87 h -8.87 -8.8699 v -8.87 -8.8699 h -8.87 -8.9915 v -8.9915 -8.87 0 h 8.9915 8.87 v 8.87 8.9915 h 8.8699 8.87 v 8.8699 8.87 h 8.87 8.8699 v -8.87 -8.8699 h 8.87 8.9915 v -8.9915 -8.87 h 8.87 8.8699 v 0 8.87 8.9915 h -8.8699 -8.87 v 8.8699 8.87 h -8.9915 -8.87 v 8.87 8.8699 h 35.6014 35.4799 v 8.9915 8.87 z"
       id="text2"
       style="font-size:192px;font-family:'GohuFont Nerd Font';-inkscape-font-specification:'GohuFont Nerd Font, Normal';white-space:pre;fill:#9f789a;stroke-width:1.29607"
       aria-label="K"
       sodipodi:nodetypes="ccccccccccccccccccccccccccccccccccccccccccccccccccc" /><path
       id="path48"
       d="m 1585.178,585.4462 214.677,371.8324 a 83.35999,83.35999 0 0 1 0,83.36 l -214.6776,371.8322 a 83.35999,83.35999 0 0 1 -72.1917,41.68 h -429.3548 a 83.35999,83.35999 0 0 1 -72.1919,-41.68 L 796.76149,1040.6386 a 83.35999,83.35999 0 0 1 0,-83.36 L 1011.439,585.4462 a 83.35999,83.35999 0 0 1 72.1919,-41.67998 h 429.3552 a 83.35999,83.35999 0 0 1 72.1919,41.67998 z"
       style="fill:#1f282e;fill-opacity:1;stroke-width:4.37526" /><g
       id="layer7"
       inkscape:label="bg"
       style="display:none"
       transform="matrix(1.0666667,0,0,1.0666667,312.92236,282.11772)"><rect
         transform="translate(-132.5822,958.04022)"
         style="color:#000000;clip-rule:nonzero;display:inline;overflow:visible;visibility:visible;opacity:1;isolation:auto;mix-blend-mode:normal;color-interpolation:sRGB;color-interpolation-filters:linearRGB;solid-color:#000000;solid-opacity:1;fill:#ffffff;fill-opacity:1;fill-rule:evenodd;stroke:none;stroke-width:3;stroke-linecap:butt;stroke-linejoin:round;stroke-miterlimit:4;stroke-dasharray:none;stroke-dashoffset:0;stroke-opacity:1;marker:none;color-rendering:auto;image-rendering:auto;shape-rendering:auto;text-rendering:auto;enable-background:accumulate"
         id="rect5389"
         width="1543.4283"
         height="483.7439"
         x="132.5822"
         y="-957.77832" /></g><g
       id="layer5"
       inkscape:label="guide"
       style="display:none;opacity:0.516"
       transform="matrix(1.0666667,0,0,1.0666667,171.50134,1304.0273)"><rect
         y="-957.77832"
         x="132.5822"
         height="483.7439"
         width="1543.4283"
         id="rect5350"
         style="color:#000000;clip-rule:nonzero;display:inline;overflow:visible;visibility:visible;opacity:1;isolation:auto;mix-blend-mode:normal;color-interpolation:sRGB;color-interpolation-filters:linearRGB;solid-color:#000000;solid-opacity:1;fill:#d4d4d4;fill-opacity:1;fill-rule:evenodd;stroke:none;stroke-width:3;stroke-linecap:butt;stroke-linejoin:round;stroke-miterlimit:4;stroke-dasharray:none;stroke-dashoffset:0;stroke-opacity:1;marker:none;color-rendering:auto;image-rendering:auto;shape-rendering:auto;text-rendering:auto;enable-background:accumulate" /><rect
         style="color:#000000;clip-rule:nonzero;display:inline;overflow:visible;visibility:visible;opacity:1;isolation:auto;mix-blend-mode:normal;color-interpolation:sRGB;color-interpolation-filters:linearRGB;solid-color:#000000;solid-opacity:1;fill:#9b9b9b;fill-opacity:1;fill-rule:evenodd;stroke:none;stroke-width:3;stroke-linecap:butt;stroke-linejoin:round;stroke-miterlimit:4;stroke-dasharray:none;stroke-dashoffset:0;stroke-opacity:1;marker:none;color-rendering:auto;image-rendering:auto;shape-rendering:auto;text-rendering:auto;enable-background:accumulate"
         id="rect5346"
         width="1496.443"
         height="435.68069"
         x="155.77646"
         y="-933.38721"
         inkscape:export-xdpi="17.971878"
         inkscape:export-ydpi="17.971878" /><rect
         y="-851.65918"
         x="159.02695"
         height="272.58423"
         width="1492.5731"
         id="rect5348"
         style="color:#000000;clip-rule:nonzero;display:inline;overflow:visible;visibility:visible;opacity:1;isolation:auto;mix-blend-mode:normal;color-interpolation:sRGB;color-interpolation-filters:linearRGB;solid-color:#000000;solid-opacity:1;fill:#848484;fill-opacity:1;fill-rule:evenodd;stroke:none;stroke-width:3;stroke-linecap:butt;stroke-linejoin:round;stroke-miterlimit:4;stroke-dasharray:none;stroke-dashoffset:0;stroke-opacity:1;marker:none;color-rendering:auto;image-rendering:auto;shape-rendering:auto;text-rendering:auto;enable-background:accumulate" /></g><g
       id="layer6"
       inkscape:label="logo-guide"
       style="display:none"
       transform="matrix(1.0666667,0,0,1.0666667,171.50134,1304.0273)"><rect
         y="-958.02759"
         x="132.65129"
         height="484.30399"
         width="550.41602"
         id="rect5379"
         style="color:#000000;clip-rule:nonzero;display:inline;overflow:visible;visibility:visible;opacity:1;isolation:auto;mix-blend-mode:normal;color-interpolation:sRGB;color-interpolation-filters:linearRGB;solid-color:#000000;solid-opacity:1;fill:#5c201e;fill-opacity:1;fill-rule:evenodd;stroke:none;stroke-width:3;stroke-linecap:butt;stroke-linejoin:round;stroke-miterlimit:4;stroke-dasharray:none;stroke-dashoffset:0;stroke-opacity:1;marker:none;color-rendering:auto;image-rendering:auto;shape-rendering:auto;text-rendering:auto;enable-background:accumulate"
         inkscape:export-filename="/home/tim/dev/nix/homepage/logo/nix-wiki.png"
         inkscape:export-xdpi="22.07"
         inkscape:export-ydpi="22.07" /><rect
         style="color:#000000;clip-rule:nonzero;display:inline;overflow:visible;visibility:visible;opacity:1;isolation:auto;mix-blend-mode:normal;color-interpolation:sRGB;color-interpolation-filters:linearRGB;solid-color:#000000;solid-opacity:1;fill:#c24a46;fill-opacity:1;fill-rule:evenodd;stroke:none;stroke-width:3;stroke-linecap:butt;stroke-linejoin:round;stroke-miterlimit:4;stroke-dasharray:none;stroke-dashoffset:0;stroke-opacity:1;marker:none;color-rendering:auto;image-rendering:auto;shape-rendering:auto;text-rendering:auto;enable-background:accumulate"
         id="rect5372"
         width="501.94415"
         height="434.30405"
         x="156.12303"
         y="-933.02759"
         inkscape:export-filename="/home/tim/dev/nix/homepage/logo/nixos-logo-only-hires-print.png"
         inkscape:export-xdpi="212.2"
         inkscape:export-ydpi="212.2" /><rect
         style="color:#000000;clip-rule:nonzero;display:inline;overflow:visible;visibility:visible;opacity:1;isolation:auto;mix-blend-mode:normal;color-interpolation:sRGB;color-interpolation-filters:linearRGB;solid-color:#000000;solid-opacity:1;fill:#d98d8a;fill-opacity:1;fill-rule:evenodd;stroke:none;stroke-width:3;stroke-linecap:butt;stroke-linejoin:round;stroke-miterlimit:4;stroke-dasharray:none;stroke-dashoffset:0;stroke-opacity:1;marker:none;color-rendering:auto;image-rendering:auto;shape-rendering:auto;text-rendering:auto;enable-background:accumulate"
         id="rect5381"
         width="24.939611"
         height="24.939611"
         x="658.02826"
         y="-958.04022" /></g><g
       id="layer2"
       inkscape:label="guides"
       style="display:none"
       transform="matrix(1.0666667,0,0,1.0666667,256.85327,-615.45613)"><path
         d="M 460.60629,594.72881 209.74183,594.7288 84.309616,377.4738 209.74185,160.21882 l 250.86446,1e-5 125.43222,217.255 z"
         inkscape:randomized="0"
         inkscape:rounded="0"
         inkscape:flatsided="true"
         sodipodi:arg2="1.5707963"
         sodipodi:arg1="1.0471976"
         sodipodi:r2="217.25499"
         sodipodi:r1="250.86446"
         sodipodi:cy="377.47382"
         sodipodi:cx="335.17407"
         sodipodi:sides="6"
         id="path6032"
         style="color:#000000;display:inline;overflow:visible;visibility:visible;opacity:0.236;fill:#4e4d52;fill-opacity:1;fill-rule:nonzero;stroke:none;stroke-width:3;stroke-linecap:butt;stroke-linejoin:round;stroke-miterlimit:4;stroke-dasharray:none;stroke-dashoffset:0;stroke-opacity:1;marker:none;enable-background:accumulate"
         sodipodi:type="star" /><path
         transform="translate(0,-308.26772)"
         sodipodi:type="star"
         style="color:#000000;display:inline;overflow:visible;visibility:visible;opacity:1;fill:#4e4d52;fill-opacity:1;fill-rule:nonzero;stroke:none;stroke-width:3;stroke-linecap:butt;stroke-linejoin:round;stroke-miterlimit:4;stroke-dasharray:none;stroke-dashoffset:0;stroke-opacity:1;marker:none;enable-background:accumulate"
         id="path5875"
         sodipodi:sides="6"
         sodipodi:cx="335.17407"
         sodipodi:cy="685.74158"
         sodipodi:r1="100.83495"
         sodipodi:r2="87.32563"
         sodipodi:arg1="1.0471976"
         sodipodi:arg2="1.5707963"
         inkscape:flatsided="true"
         inkscape:rounded="0"
         inkscape:randomized="0"
         d="m 385.59154,773.06721 -100.83495,0 -50.41747,-87.32564 50.41748,-87.32563 100.83495,10e-6 50.41748,87.32563 z" /><path
         transform="translate(0,-308.26772)"
         sodipodi:nodetypes="ccccccccc"
         inkscape:connector-curvature="0"
         id="path5851"
         d="m 1216.5591,938.53395 123.0545,228.14035 -42.6807,-1.2616 -43.4823,-79.7725 -39.6506,80.3267 -32.6875,-19.7984 53.4737,-100.2848 -37.1157,-73.88955 z"
         style="fill:url(#linearGradient5855);fill-opacity:1;fill-rule:evenodd;stroke:none;stroke-width:3;stroke-linecap:butt;stroke-linejoin:round;stroke-miterlimit:4;stroke-dasharray:none;stroke-opacity:1" /><rect
         style="color:#000000;clip-rule:nonzero;display:inline;overflow:visible;visibility:visible;opacity:0.415;isolation:auto;mix-blend-mode:normal;color-interpolation:sRGB;color-interpolation-filters:linearRGB;solid-color:#000000;solid-opacity:1;fill:#c53a3a;fill-opacity:1;fill-rule:nonzero;stroke:none;stroke-width:3;stroke-linecap:butt;stroke-linejoin:round;stroke-miterlimit:4;stroke-dasharray:none;stroke-dashoffset:0;stroke-opacity:1;marker:none;color-rendering:auto;image-rendering:auto;shape-rendering:auto;text-rendering:auto;enable-background:accumulate"
         id="rect5884"
         width="48.834862"
         height="226.22897"
         x="-34.74221"
         y="446.17056"
         transform="rotate(-30)" /><path
         transform="translate(0,-308.26772)"
         sodipodi:type="star"
         style="color:#000000;clip-rule:nonzero;display:inline;overflow:visible;visibility:visible;opacity:0.509;isolation:auto;mix-blend-mode:normal;color-interpolation:sRGB;color-interpolation-filters:linearRGB;solid-color:#000000;solid-opacity:1;fill:#000000;fill-opacity:1;fill-rule:evenodd;stroke:none;stroke-width:3;stroke-linecap:butt;stroke-linejoin:round;stroke-miterlimit:4;stroke-dasharray:none;stroke-dashoffset:0;stroke-opacity:1;marker:none;color-rendering:auto;image-rendering:auto;shape-rendering:auto;text-rendering:auto;enable-background:accumulate"
         id="path3428"
         sodipodi:sides="6"
         sodipodi:cx="223.93674"
         sodipodi:cy="878.63831"
         sodipodi:r1="28.048939"
         sodipodi:r2="24.291094"
         sodipodi:arg1="0"
         sodipodi:arg2="0.52359878"
         inkscape:flatsided="true"
         inkscape:rounded="0"
         inkscape:randomized="0"
         d="m 251.98568,878.63831 -14.02447,24.29109 h -28.04894 l -14.02447,-24.29109 14.02447,-24.2911 h 28.04894 z" /><use
         x="0"
         y="0"
         xlink:href="#rect5884"
         id="use4252"
         transform="rotate(60,268.29786,489.4515)"
         width="100%"
         height="100%" /><rect
         style="color:#000000;clip-rule:nonzero;display:inline;overflow:visible;visibility:visible;opacity:1;isolation:auto;mix-blend-mode:normal;color-interpolation:sRGB;color-interpolation-filters:linearRGB;solid-color:#000000;solid-opacity:1;fill:#000000;fill-opacity:0.650794;fill-rule:evenodd;stroke:none;stroke-width:1px;stroke-linecap:butt;stroke-linejoin:miter;stroke-miterlimit:4;stroke-dasharray:none;stroke-dashoffset:0;stroke-opacity:1;marker:none;color-rendering:auto;image-rendering:auto;shape-rendering:auto;text-rendering:auto;enable-background:accumulate"
         id="rect4254"
         width="5.3947482"
         height="115.12564"
         x="545.71014"
         y="467.07007"
         transform="rotate(30,575.23539,-154.13386)" /></g><g
       id="g73"><path
         style="color:#000000;clip-rule:nonzero;display:inline;overflow:visible;visibility:visible;isolation:auto;mix-blend-mode:normal;color-interpolation:sRGB;color-interpolation-filters:linearRGB;solid-color:#000000;solid-opacity:1;fill:#6e708f;fill-opacity:1;fill-rule:evenodd;stroke:none;stroke-width:5.36061;stroke-linecap:butt;stroke-linejoin:round;stroke-miterlimit:4;stroke-dasharray:none;stroke-dashoffset:0;stroke-opacity:1;color-rendering:auto;image-rendering:auto;shape-rendering:auto;text-rendering:auto;enable-background:accumulate"
         d="M 785.87707,524.97158 574.52672,158.86057 a 4.0855771,4.0855771 119.73267 0 1 3.49999,-6.12801 l 86.34594,-0.81 a 11.95599,11.95599 29.810679 0 1 10.48287,6.0062 l 51.32773,89.47409 a 4.0407771,4.0407771 0.1546811 0 0 6.9991,0.0189 l 51.67834,-88.96887 a 12.155696,12.155696 150.08653 0 1 10.51592,-6.05021 l 35.85789,0.0141 a 12.145318,12.145318 29.979684 0 1 10.50668,6.06107 l 18.52254,32.00046 a 12.064945,12.064945 90.058864 0 1 -0.0124,12.10942 l -76.60594,131.72325 a 12.108562,12.108562 90.148534 0 0 -0.0314,12.12036 l 52.4013,91.18826 a 12.189432,12.189432 89.983556 0 1 0.003,12.14052 l -43.15771,75.20256 a 4.0290905,4.0290905 179.92687 0 1 -6.98392,0.009 z"
         id="use4867"
         inkscape:connector-curvature="0"
         sodipodi:nodetypes="cccccccccc"
         inkscape:path-effect="#path-effect52"
         inkscape:original-d="m 789.37677,531.03393 -218.34975,-378.23571 100.34532,-0.94132 58.29409,101.61781 58.71018,-101.07479 49.85789,0.0196 25.5359,44.1171 -83.64418,143.82545 59.3767,103.32678 z"
         transform="matrix(0.96382159,0,0,0.96382159,-113.17567,-34.897756)" /><path
         sodipodi:nodetypes="cccccccccc"
         inkscape:connector-curvature="0"
         id="use4875"
         d="m 686.23109,383.53819 -422.73655,-0.0207 a 4.0855793,4.0855793 59.732656 0 1 -3.55702,-6.09508 l 42.47144,-75.18279 a 11.95598,11.95598 149.81067 0 1 10.44295,-6.07533 l 103.15078,0.28595 a 4.0407761,4.0407761 120.15469 0 0 3.51591,-6.05194 l -51.21012,-89.2392 a 12.155532,12.155532 90.086867 0 1 0.0184,-12.13211 l 17.94152,-31.04658 a 12.145513,12.145513 149.97996 0 1 10.50245,-6.06849 l 36.97442,-0.0408 a 12.064912,12.064912 30.058805 0 1 10.48084,6.06547 l 75.77268,132.20429 a 12.10856,12.10856 30.148539 0 0 10.48083,6.08739 l 105.172,0.21328 a 12.189387,12.189387 29.983647 0 1 10.51573,6.06725 l 43.54801,74.97673 a 4.0291057,4.0291057 119.92696 0 1 -3.48426,6.05272 z"
         style="color:#000000;clip-rule:nonzero;display:inline;overflow:visible;visibility:visible;isolation:auto;mix-blend-mode:normal;color-interpolation:sRGB;color-interpolation-filters:linearRGB;solid-color:#000000;solid-opacity:1;fill:#326b78;fill-opacity:1;fill-rule:evenodd;stroke:none;stroke-width:5.36061;stroke-linecap:butt;stroke-linejoin:round;stroke-miterlimit:4;stroke-dasharray:none;stroke-dashoffset:0;stroke-opacity:1;color-rendering:auto;image-rendering:auto;shape-rendering:auto;text-rendering:auto;enable-background:accumulate"
         inkscape:path-effect="#path-effect53"
         inkscape:original-d="m 693.23109,383.53853 -436.73655,-0.0214 49.3574,-87.37227 117.15072,0.32477 -58.17824,-101.3819 24.94642,-43.1681 50.97442,-0.0563 82.73436,144.35069 119.17198,0.24166 z"
         transform="matrix(0.96382159,0,0,0.96382159,-113.17567,-34.897756)" /><path
         style="color:#000000;clip-rule:nonzero;display:inline;overflow:visible;visibility:visible;isolation:auto;mix-blend-mode:normal;color-interpolation:sRGB;color-interpolation-filters:linearRGB;solid-color:#000000;solid-opacity:1;fill:#6e708f;fill-opacity:1;fill-rule:evenodd;stroke:none;stroke-width:5.36061;stroke-linecap:butt;stroke-linejoin:round;stroke-miterlimit:4;stroke-dasharray:none;stroke-dashoffset:0;stroke-opacity:1;color-rendering:auto;image-rendering:auto;shape-rendering:auto;text-rendering:auto;enable-background:accumulate"
         d="M 785.87707,524.97158 574.52672,158.86057 a 4.0855771,4.0855771 119.73267 0 1 3.49999,-6.12801 l 86.34594,-0.81 a 11.95599,11.95599 29.810679 0 1 10.48287,6.0062 l 51.32773,89.47409 a 4.0407771,4.0407771 0.1546811 0 0 6.9991,0.0189 l 51.67834,-88.96887 a 12.155696,12.155696 150.08653 0 1 10.51592,-6.05021 l 35.85789,0.0141 a 12.145318,12.145318 29.979684 0 1 10.50668,6.06107 l 18.52254,32.00046 a 12.064945,12.064945 90.058864 0 1 -0.0124,12.10942 l -76.60594,131.72325 a 12.108562,12.108562 90.148534 0 0 -0.0314,12.12036 l 52.4013,91.18826 a 12.189432,12.189432 89.983556 0 1 0.003,12.14052 l -43.15771,75.20256 a 4.0290905,4.0290905 179.92687 0 1 -6.98392,0.009 z"
         id="path56"
         inkscape:connector-curvature="0"
         sodipodi:nodetypes="cccccccccc"
         inkscape:path-effect="#path-effect58"
         inkscape:original-d="m 789.37677,531.03393 -218.34975,-378.23571 100.34532,-0.94132 58.29409,101.61781 58.71018,-101.07479 49.85789,0.0196 25.5359,44.1171 -83.64418,143.82545 59.3767,103.32678 z"
         transform="matrix(-0.48191079,-0.83469398,0.83469398,-0.48191079,299.38375,1258.8848)" /><path
         sodipodi:nodetypes="cccccccccc"
         inkscape:connector-curvature="0"
         id="path57"
         d="m 686.23109,383.53819 -422.73655,-0.0207 a 4.0855793,4.0855793 59.732656 0 1 -3.55702,-6.09508 l 42.47144,-75.18279 a 11.95598,11.95598 149.81067 0 1 10.44295,-6.07533 l 103.15078,0.28595 a 4.0407761,4.0407761 120.15469 0 0 3.51591,-6.05194 l -51.21012,-89.2392 a 12.155532,12.155532 90.086867 0 1 0.0184,-12.13211 l 17.94152,-31.04658 a 12.145513,12.145513 149.97996 0 1 10.50245,-6.06849 l 36.97442,-0.0408 a 12.064912,12.064912 30.058805 0 1 10.48084,6.06547 l 75.77268,132.20429 a 12.10856,12.10856 30.148539 0 0 10.48083,6.08739 l 105.172,0.21328 a 12.189387,12.189387 29.983647 0 1 10.51573,6.06725 l 43.54801,74.97673 a 4.0291057,4.0291057 119.92696 0 1 -3.48426,6.05272 z"
         style="color:#000000;clip-rule:nonzero;display:inline;overflow:visible;visibility:visible;isolation:auto;mix-blend-mode:normal;color-interpolation:sRGB;color-interpolation-filters:linearRGB;solid-color:#000000;solid-opacity:1;fill:#326b78;fill-opacity:1;fill-rule:evenodd;stroke:none;stroke-width:5.36061;stroke-linecap:butt;stroke-linejoin:round;stroke-miterlimit:4;stroke-dasharray:none;stroke-dashoffset:0;stroke-opacity:1;color-rendering:auto;image-rendering:auto;shape-rendering:auto;text-rendering:auto;enable-background:accumulate"
         inkscape:path-effect="#path-effect60"
         inkscape:original-d="m 693.23109,383.53853 -436.73655,-0.0214 49.3574,-87.37227 117.15072,0.32477 -58.17824,-101.3819 24.94642,-43.1681 50.97442,-0.0563 82.73436,144.35069 119.17198,0.24166 z"
         transform="matrix(-0.48191079,-0.83469398,0.83469398,-0.48191079,299.38375,1258.8848)" /><path
         style="color:#000000;clip-rule:nonzero;display:inline;overflow:visible;visibility:visible;isolation:auto;mix-blend-mode:normal;color-interpolation:sRGB;color-interpolation-filters:linearRGB;solid-color:#000000;solid-opacity:1;fill:#6e708f;fill-opacity:1;fill-rule:evenodd;stroke:none;stroke-width:5.36061;stroke-linecap:butt;stroke-linejoin:round;stroke-miterlimit:4;stroke-dasharray:none;stroke-dashoffset:0;stroke-opacity:1;color-rendering:auto;image-rendering:auto;shape-rendering:auto;text-rendering:auto;enable-background:accumulate"
         d="M 785.87707,524.97158 574.52672,158.86057 a 4.0855771,4.0855771 119.73267 0 1 3.49999,-6.12801 l 86.34594,-0.81 a 11.95599,11.95599 29.810679 0 1 10.48287,6.0062 l 51.32773,89.47409 a 4.0407771,4.0407771 0.1546811 0 0 6.9991,0.0189 l 51.67834,-88.96887 a 12.155696,12.155696 150.08653 0 1 10.51592,-6.05021 l 35.85789,0.0141 a 12.145318,12.145318 29.979684 0 1 10.50668,6.06107 l 18.52254,32.00046 a 12.064945,12.064945 90.058864 0 1 -0.0124,12.10942 l -76.60594,131.72325 a 12.108562,12.108562 90.148534 0 0 -0.0314,12.12036 l 52.4013,91.18826 a 12.189432,12.189432 89.983556 0 1 0.003,12.14052 l -43.15771,75.20256 a 4.0290905,4.0290905 179.92687 0 1 -6.98392,0.009 z"
         id="path60"
         inkscape:connector-curvature="0"
         sodipodi:nodetypes="cccccccccc"
         inkscape:path-effect="#path-effect62"
         inkscape:original-d="m 789.37677,531.03393 -218.34975,-378.23571 100.34532,-0.94132 58.29409,101.61781 58.71018,-101.07479 49.85789,0.0196 25.5359,44.1171 -83.64418,143.82545 59.3767,103.32678 z"
         transform="matrix(-0.48191079,0.83469398,-0.83469398,-0.48191079,1213.5682,254.90694)" /><path
         sodipodi:nodetypes="cccccccccc"
         inkscape:connector-curvature="0"
         id="path61"
         d="m 686.23109,383.53819 -422.73655,-0.0207 a 4.0855793,4.0855793 59.732656 0 1 -3.55702,-6.09508 l 42.47144,-75.18279 a 11.95598,11.95598 149.81067 0 1 10.44295,-6.07533 l 103.15078,0.28595 a 4.0407761,4.0407761 120.15469 0 0 3.51591,-6.05194 l -51.21012,-89.2392 a 12.155532,12.155532 90.086867 0 1 0.0184,-12.13211 l 17.94152,-31.04658 a 12.145513,12.145513 149.97996 0 1 10.50245,-6.06849 l 36.97442,-0.0408 a 12.064912,12.064912 30.058805 0 1 10.48084,6.06547 l 75.77268,132.20429 a 12.10856,12.10856 30.148539 0 0 10.48083,6.08739 l 105.172,0.21328 a 12.189387,12.189387 29.983647 0 1 10.51573,6.06725 l 43.54801,74.97673 a 4.0291057,4.0291057 119.92696 0 1 -3.48426,6.05272 z"
         style="color:#000000;clip-rule:nonzero;display:inline;overflow:visible;visibility:visible;isolation:auto;mix-blend-mode:normal;color-interpolation:sRGB;color-interpolation-filters:linearRGB;solid-color:#000000;solid-opacity:1;fill:#326b78;fill-opacity:1;fill-rule:evenodd;stroke:none;stroke-width:5.36061;stroke-linecap:butt;stroke-linejoin:round;stroke-miterlimit:4;stroke-dasharray:none;stroke-dashoffset:0;stroke-opacity:1;color-rendering:auto;image-rendering:auto;shape-rendering:auto;text-rendering:auto;enable-background:accumulate"
         inkscape:path-effect="#path-effect64"
         inkscape:original-d="m 693.23109,383.53853 -436.73655,-0.0214 49.3574,-87.37227 117.15072,0.32477 -58.17824,-101.3819 24.94642,-43.1681 50.97442,-0.0563 82.73436,144.35069 119.17198,0.24166 z"
         transform="matrix(-0.48191079,0.83469398,-0.83469398,-0.48191079,1213.5682,254.90694)" /></g></g></svg>
